<svg width="704" height="708" viewBox="0 0 704 708" fill="none" xmlns="http://www.w3.org/2000/svg">
<path d="M300.5 469L304.5 475V493V496V498L318 503.5L326.5 505L334 499.5L342 505L344.5 516.5L346 531L352.5 535.5L361.5 531L365 534V543.5L627 345L639.5 336.5L652 323L659 306L671 295.5L688 278.5L701 260.5L703 235.5L699 224L697 211L692.5 198.5L685 192.5H671L663 190L659 186.5L650 180L639.5 170.846L630.5 163L627 160.861L293 413L306 426V436.5V441.5L304.5 444V446.5L303 447.5V449.5L301.5 451V458.5L303 460.5L302.5 464L300.5 466V469Z" fill="#FF9B54"/>
<path d="M293 400.5V413L627 160.861L612.5 152L601.5 150L585.5 148.5L574.5 144H563.5L555 140.5L545.5 138.5L535 140.5L528 144L530.5 138.5V132.5L526 127L517.5 123L506.5 118L491.5 111.5L471.5 107H463L453.5 101.5L164 308L185.5 338.5H206.5L212.5 344H218.5L219 345.5L234 352.5H245L252.5 359V383L258 387.5L258.5 400.5H260.5H293Z" fill="#7984AF"/>
<path d="M627 372V345L365 543.5L361.5 554.5L363.5 561H372.5L375.5 567.5L376.5 578.5L372.5 586.5L350 601.5L337 616.5L318.5 640L317 645.5L332.5 646.5L341 654L343 661L351.5 658L358 664.5L371 673.5L380.5 686L378.5 702L384.5 707L393 702L401 689L405 678.5L416 671L426 661L432 651.5L437.5 638L446 623L461 610V600V583.5V569.5L465 560L477 548L488 539.5L502.5 532.5L516.5 529.5L525.5 521L536.5 519.5L569 516L585.5 500.5L588 487.5L610.5 457.5L613.5 435L621.5 425.5L624 407.5L629.5 389.5L627 372Z" fill="#FFFCA8"/>
<path d="M162 291L164 308L453.5 101.5L456.5 89.5L449 87L431.5 79.5L425.5 73.5L428.5 67.5V56L413 41.5L401 13.5L392.5 9L386.5 13.5L374.5 33.5L371.5 43L362.5 46.5L354 43L345 46.5L338.5 43H325.5H310L308 52.5L286.5 56L265.5 65H254L246 52.5L247.5 35.5L250.5 21.5L239.5 13.5L237 1H225L219.5 11L201.5 21.5C194.167 23.8333 179.2 28.5 178 28.5C176.8 28.5 158.5 25.5 149.5 24V32L157.5 37.5L159.5 58.5L168.5 62.5L154 76L128 85L118.5 80.5L115 70.5L109.5 65L100 70.5L93 68L86 74.5H61V89.5L64 93H71V95.5H64L57.5 100.5V112L64 121L71 132L67.5 183.5L61 179.5L54 183.5L48.5 189H39L16 206.5V212.5L11.5 219.5V225L16 229.5L4 238.5V245L1 248V252.5L21.5 275.5L14 287H19H36L44 293.5H57.5L67.5 284.5L69.5 308L76.5 311.5C78.5 310.333 82.7 308 83.5 308H115L128 297.5L152 279H162L159.5 282.5L162 291Z" fill="#BF211E"/>
<path d="M304.5 496C304.5 494.963 304.5 493.963 304.5 493M304.5 496V498M304.5 496V493M304.5 475L300.5 469V466L302.5 464L303 460.5L301.5 458.5V451L303 449.5V447.5L304.5 446.5V444L306 441.5V436.5V426L293 413M304.5 475C304.5 476.827 304.5 482.827 304.5 493M304.5 475V493M293 413V400.5H260.5H258.5L258 387.5L252.5 383V359L245 352.5H234L219 345.5L218.5 344H212.5L206.5 338.5H185.5L164 308M293 413L627 160.861M164 308L162 291L159.5 282.5L162 279H152L128 297.5L115 308M164 308L453.5 101.5M115 308C104.833 308 84.3 308 83.5 308M115 308H83.5M83.5 308C82.7 308 78.5 310.333 76.5 311.5L69.5 308L67.5 284.5L57.5 293.5H44L36 287H19H14L21.5 275.5L1 252.5V248L4 245V238.5L16 229.5L11.5 225V219.5L16 212.5V206.5L39 189H48.5L54 183.5L61 179.5L67.5 183.5L71 132L64 121L57.5 112V100.5L64 95.5H71V93H64L61 89.5V74.5H86L93 68L100 70.5L109.5 65L115 70.5L118.5 80.5L128 85L154 76L168.5 62.5L159.5 58.5L157.5 37.5L149.5 32V24C158.5 25.5 176.8 28.5 178 28.5C179.2 28.5 194.167 23.8333 201.5 21.5L219.5 11L225 1H237L239.5 13.5L250.5 21.5L247.5 35.5L246 52.5L254 65H265.5L286.5 56L308 52.5L310 43H325.5H338.5L345 46.5L354 43L362.5 46.5L371.5 43L374.5 33.5L386.5 13.5L392.5 9L401 13.5L413 41.5L428.5 56V67.5L425.5 73.5L431.5 79.5L449 87L456.5 89.5L453.5 101.5M453.5 101.5L463 107H471.5L491.5 111.5L506.5 118L517.5 123L526 127L530.5 132.5V138.5L528 144L535 140.5L545.5 138.5L555 140.5L563.5 144H574.5L585.5 148.5L601.5 150L612.5 152L627 160.861M627 345L639.5 336.5L652 323L659 306L671 295.5L688 278.5L701 260.5L703 235.5L699 224L697 211L692.5 198.5L685 192.5H671L663 190L659 186.5L650 180L639.5 170.846L630.5 163L627 160.861M627 345V372L629.5 389.5L624 407.5L621.5 425.5L613.5 435L610.5 457.5L588 487.5L585.5 500.5L569 516L536.5 519.5L525.5 521L516.5 529.5L502.5 532.5L488 539.5L477 548L465 560L461 569.5V583.5V600V610L446 623L437.5 638L432 651.5L426 661L416 671L405 678.5L401 689L393 702L384.5 707L378.5 702L380.5 686L371 673.5L358 664.5L351.5 658L343 661L341 654L332.5 646.5L317 645.5L318.5 640L337 616.5L350 601.5L372.5 586.5L376.5 578.5L375.5 567.5L372.5 561H363.5L361.5 554.5L365 543.5M627 345L365 543.5M365 543.5V534L361.5 531L352.5 535.5L346 531L344.5 516.5L342 505L334 499.5L326.5 505L318 503.5L304.5 498M304.5 498V493" stroke="black"/>
</svg>
