<svg width="510" height="139" viewBox="0 0 510 139" fill="none" xmlns="http://www.w3.org/2000/svg">
<mask id="path-1-outside-1_432_2" maskUnits="userSpaceOnUse" x="-8" y="-8" width="528" height="156" fill="black">
<rect fill="white" x="-8" y="-8" width="528" height="156"/>
<path d="M38.4127 135.05H37.8127C33.9127 135.05 31.0627 134.15 28.5127 133.4C27.4627 132.95 17.5627 129.8 10.8127 122.75C3.0127 114.8 0.0126953 102.8 0.0126953 92.75C0.0126953 83.45 2.5627 75.65 5.8627 74C6.7627 73.55 9.6127 72.5 11.7127 71.75L18.4627 69.65C17.7127 68.9 16.6627 67.55 15.4627 65.75C14.5627 64.25 8.7127 55.7 8.7127 48.65C8.7127 46.85 9.1627 45.2 10.0627 43.7C10.9627 42.2 12.3127 41.3 15.3127 39.5C15.3127 39.5 23.5627 34.55 37.0627 34.55H37.6627C40.2127 34.55 42.0127 34.85 42.6127 35C43.9627 35.15 45.4627 35.6 47.1127 36.05C48.6127 36.65 50.2627 37.25 51.7627 38.15C53.2627 38.9 54.7627 39.8 56.1127 40.85C57.4627 41.9 58.6627 43.1 59.8627 44.45C62.7127 47.45 65.1127 50.9 66.7627 54.8C68.5627 58.85 69.9127 62.9 70.9627 67.25C71.8627 71.45 72.4627 75.8 72.7627 80C73.0627 84.35 73.0627 88.4 73.0627 92.45C72.9127 97.1 72.1627 101.75 70.9627 106.55C70.2127 109.4 68.7127 114.35 65.4127 119.3C60.0127 127.4 49.9627 135.05 38.4127 135.05ZM52.3627 79.25C52.3627 76.55 52.0627 73.55 51.3127 70.25C50.8627 68.6 50.1127 65 48.1627 60.65C45.6127 54.65 43.3627 49.1 37.9627 45.35C35.4127 43.55 32.8627 42.65 31.2127 42.2C29.7127 45.2 29.2627 47.75 29.2627 49.25V50.15C29.2627 54.35 30.9127 57.65 31.9627 59.75C32.8627 61.25 34.0627 62.75 36.1627 65.45C40.3627 70.4 42.7627 73.25 46.8127 76.1C49.0627 77.6 51.0127 78.65 52.3627 79.25ZM38.4127 123.65C40.2127 122.15 42.7627 119.9 44.8627 116.45C47.1127 112.85 48.1627 109.85 49.0627 106.85C50.1127 103.25 50.8627 99.5 51.3127 95.6C51.9127 91.7 52.2127 87.65 52.3627 83.45L42.4627 82.1C36.7627 81.2 33.9127 80.45 30.7627 78.95L28.2127 77.6C26.8627 81.5 25.9627 85.85 25.5127 90.5L25.3627 95C25.3627 98.15 25.6627 101.15 26.1127 104.3C27.0127 108.65 28.3627 112.55 30.3127 116.15C32.2627 119.6 34.9627 122.15 38.4127 123.65ZM213.692 138.2C209.642 132.35 206.192 127.85 203.792 125L199.442 119.6C194.042 127.7 183.992 135.05 172.592 135.05H171.992C168.092 135.05 165.242 134.15 162.692 133.4C161.642 132.95 151.742 129.8 144.992 122.75C137.192 114.8 134.192 102.8 134.192 92.75C134.192 83.45 136.742 75.65 140.042 74C140.942 73.55 143.792 72.5 145.892 71.75L152.642 69.65C151.892 68.9 150.842 67.55 149.642 65.75C148.742 64.25 142.892 55.7 142.892 48.65C142.892 46.85 143.342 45.2 144.242 43.7C145.142 42.2 146.492 41.3 149.492 39.5C149.492 39.5 157.742 34.55 171.242 34.55H171.842C174.392 34.55 176.192 34.85 176.792 35C178.142 35.15 179.642 35.6 181.292 36.05C182.792 36.65 184.442 37.25 185.942 38.15C187.442 38.9 188.942 39.8 190.292 40.85C191.642 41.9 192.842 43.1 194.042 44.45C196.892 47.45 199.292 50.9 200.942 54.8C202.742 58.85 204.092 62.9 205.142 67.25C206.042 71.45 206.642 75.8 206.942 80C207.242 84.35 207.242 88.4 207.242 92.45C207.092 96.2 206.642 99.8 205.742 103.55C208.892 106.4 212.192 109.25 215.642 112.1C222.692 117.8 229.592 122.9 236.342 127.4C234.092 129.2 231.242 131.3 227.642 133.25C222.392 136.1 217.442 137.45 213.692 138.2ZM186.542 84.5L186.692 80.45L186.542 77L186.242 74.75L185.492 70.25C185.042 68.6 184.292 65 182.342 60.65C179.792 54.65 177.542 49.1 172.142 45.35C169.592 43.55 167.042 42.65 165.392 42.2C163.892 45.2 163.442 47.75 163.442 49.25V50.15C163.442 54.35 165.092 57.65 166.142 59.75C167.042 61.25 168.242 62.75 170.342 65.45C174.842 71.15 179.792 77.15 185.342 83.3C185.792 83.75 186.092 84.2 186.542 84.5ZM172.592 123.65C174.392 122.15 176.942 119.9 179.042 116.45C181.292 112.85 182.342 109.85 183.242 106.85C183.692 105.5 183.992 104.3 184.292 102.95C179.192 97.7 173.342 91.7 165.692 83.15L161.942 78.95C160.892 82.55 160.142 86.45 159.692 90.5L159.542 95C159.542 98.15 159.842 101.15 160.292 104.3C161.192 108.65 162.542 112.55 164.492 116.15C166.442 119.6 169.142 122.15 172.592 123.65ZM244.85 135.05C234.5 135.05 224 130.7 217.4 122.45L216.35 121.1C212.6 115.85 210.95 109.25 210.95 102.5C210.95 91.25 212.45 82.7 213.8 76.7C214.7 73.1 216.2 67.4 217.7 58.7C218.9 52.4 219.5 47.15 219.95 43.7C222.2 42.2 226.1 39.95 231.5 39.2C233.45 38.9 235.1 38.75 236.6 38.75C238.25 38.75 239.6 38.9 240.65 39.05C240.05 42.35 239.3 45.5 238.55 48.65L236 58.4C234.2 65 233.6 71 232.7 82.85C232.1 89.6 231.65 98.3 231.35 108.5C231.35 109.85 231.5 111.2 231.95 112.4C233.45 116.15 236.45 119 240.05 120.05L241.55 120.2C243.8 120.2 247.1 119.15 251.9 114.2C251.9 112.85 251.75 110.9 251.45 108.65C250.7 99.2 250.25 95.9 249.65 89.75C248.6 81.35 248.15 72.65 248.15 63.5L248 54.35C248.15 45.05 248.9 37.55 249.5 32.15L269.15 34.1C268.4 37.4 267.65 42.2 267.35 47.75L267.2 50.75L267.5 58.4C268.25 71 269.3 77.6 270.5 91.25C270.5 92.3 270.8 94.25 271.1 97.1C271.55 101.6 272.15 105.35 272.45 107.15C272.9 110.45 273.5 113.6 274.25 116.9C272.6 120.2 269.9 124.55 265.7 128C259.85 132.8 252.35 135.05 244.85 135.05ZM318.653 135.05C299.753 134.9 287.603 122.3 285.503 120.05C285.503 120.05 276.803 111.65 274.103 98.3C273.653 95.9 273.353 93.95 273.353 92.3C273.353 89 274.103 86.9 274.403 86C275.603 82.85 277.703 80.3 277.703 80.3C278.003 80 278.753 79.1 279.953 78.2C280.403 77.75 282.953 75.65 286.853 74.45C289.703 73.4 292.403 73.25 294.353 73.25C293.303 68.9 292.403 64.4 291.503 59.6C290.303 52.55 289.403 45.8 288.953 39.5C291.353 38.6 295.103 37.55 299.603 37.25C301.103 37.25 302.903 37.25 305.903 37.55C309.653 37.85 315.203 38.75 322.103 40.85C322.253 39.95 322.403 38.75 322.403 37.25C322.553 35.75 322.853 34.55 323.453 33.5C325.853 33.05 328.703 32.75 331.853 32.75C338.003 32.9 343.103 34.1 346.553 35.45L346.403 43.1V50.15L346.853 57.05C347.453 62.9 348.953 68.6 350.453 73.1C348.803 73.4 347.303 73.7 345.803 73.85C342.953 74.3 340.103 74.6 337.403 74.9C335.603 73.4 328.553 67.4 322.703 62.15C321.353 60.95 319.703 59.3 317.603 56.9C315.953 55.25 314.603 53.6 313.403 52.1C314.153 57.65 315.803 65.6 319.703 74.3C324.503 84.5 330.653 91.7 335.003 96.05C331.703 96.95 328.103 97.85 324.203 98.45C320.753 99.05 317.603 99.5 314.603 99.65C312.353 98.15 309.053 95.6 305.753 92C299.753 85.55 298.553 80.9 296.903 80.9H296.753C294.803 81.2 292.853 85.4 292.853 91.4C292.853 94.4 293.303 97.85 294.653 101.45C298.103 111.05 307.553 121.7 317.453 121.7H318.653C329.453 120.65 337.553 109.7 342.353 100.85C342.953 99.95 343.253 99.2 343.553 98.6C346.703 100.1 350.153 102.05 353.903 104.6C356.453 106.4 358.703 108.2 360.653 109.85C358.853 112.85 355.853 117.05 351.353 121.25C347.753 124.4 336.053 135.05 318.653 135.05ZM467.041 135.05C448.141 134.9 435.991 122.3 433.891 120.05C433.891 120.05 425.191 111.65 422.491 98.3C422.041 95.9 421.741 93.95 421.741 92.3C421.741 89 422.491 86.9 422.791 86C423.991 82.85 426.091 80.3 426.091 80.3C426.391 80 427.141 79.1 428.341 78.2C428.791 77.75 431.341 75.65 435.241 74.45C438.091 73.4 440.791 73.25 442.741 73.25C441.691 68.9 440.791 64.4 439.891 59.6C438.691 52.55 437.791 45.8 437.341 39.5C439.741 38.6 443.491 37.55 447.991 37.25C449.491 37.25 451.291 37.25 454.291 37.55C458.041 37.85 463.591 38.75 470.491 40.85C470.641 39.95 470.791 38.75 470.791 37.25C470.941 35.75 471.241 34.55 471.841 33.5C474.241 33.05 477.091 32.75 480.241 32.75C486.391 32.9 491.491 34.1 494.941 35.45L494.791 43.1V50.15L495.241 57.05C495.841 62.9 497.341 68.6 498.841 73.1C497.191 73.4 495.691 73.7 494.191 73.85C491.341 74.3 488.491 74.6 485.791 74.9C483.991 73.4 476.941 67.4 471.091 62.15C469.741 60.95 468.091 59.3 465.991 56.9C464.341 55.25 462.991 53.6 461.791 52.1C462.541 57.65 464.191 65.6 468.091 74.3C472.891 84.5 479.041 91.7 483.391 96.05C480.091 96.95 476.491 97.85 472.591 98.45C469.141 99.05 465.991 99.5 462.991 99.65C460.741 98.15 457.441 95.6 454.141 92C448.141 85.55 446.941 80.9 445.291 80.9H445.141C443.191 81.2 441.241 85.4 441.241 91.4C441.241 94.4 441.691 97.85 443.041 101.45C446.491 111.05 455.941 121.7 465.841 121.7H467.041C477.841 120.65 485.941 109.7 490.741 100.85C491.341 99.95 491.641 99.2 491.941 98.6C495.091 100.1 498.541 102.05 502.291 104.6C504.841 106.4 507.091 108.2 509.041 109.85C507.241 112.85 504.241 117.05 499.741 121.25C496.141 124.4 484.441 135.05 467.041 135.05ZM454.441 27.5L468.841 0.649991H487.291L467.491 27.5H454.441Z"/>
</mask>
<path d="M38.4127 135.05H37.8127C33.9127 135.05 31.0627 134.15 28.5127 133.4C27.4627 132.95 17.5627 129.8 10.8127 122.75C3.0127 114.8 0.0126953 102.8 0.0126953 92.75C0.0126953 83.45 2.5627 75.65 5.8627 74C6.7627 73.55 9.6127 72.5 11.7127 71.75L18.4627 69.65C17.7127 68.9 16.6627 67.55 15.4627 65.75C14.5627 64.25 8.7127 55.7 8.7127 48.65C8.7127 46.85 9.1627 45.2 10.0627 43.7C10.9627 42.2 12.3127 41.3 15.3127 39.5C15.3127 39.5 23.5627 34.55 37.0627 34.55H37.6627C40.2127 34.55 42.0127 34.85 42.6127 35C43.9627 35.15 45.4627 35.6 47.1127 36.05C48.6127 36.65 50.2627 37.25 51.7627 38.15C53.2627 38.9 54.7627 39.8 56.1127 40.85C57.4627 41.9 58.6627 43.1 59.8627 44.45C62.7127 47.45 65.1127 50.9 66.7627 54.8C68.5627 58.85 69.9127 62.9 70.9627 67.25C71.8627 71.45 72.4627 75.8 72.7627 80C73.0627 84.35 73.0627 88.4 73.0627 92.45C72.9127 97.1 72.1627 101.75 70.9627 106.55C70.2127 109.4 68.7127 114.35 65.4127 119.3C60.0127 127.4 49.9627 135.05 38.4127 135.05ZM52.3627 79.25C52.3627 76.55 52.0627 73.55 51.3127 70.25C50.8627 68.6 50.1127 65 48.1627 60.65C45.6127 54.65 43.3627 49.1 37.9627 45.35C35.4127 43.55 32.8627 42.65 31.2127 42.2C29.7127 45.2 29.2627 47.75 29.2627 49.25V50.15C29.2627 54.35 30.9127 57.65 31.9627 59.75C32.8627 61.25 34.0627 62.75 36.1627 65.45C40.3627 70.4 42.7627 73.25 46.8127 76.1C49.0627 77.6 51.0127 78.65 52.3627 79.25ZM38.4127 123.65C40.2127 122.15 42.7627 119.9 44.8627 116.45C47.1127 112.85 48.1627 109.85 49.0627 106.85C50.1127 103.25 50.8627 99.5 51.3127 95.6C51.9127 91.7 52.2127 87.65 52.3627 83.45L42.4627 82.1C36.7627 81.2 33.9127 80.45 30.7627 78.95L28.2127 77.6C26.8627 81.5 25.9627 85.85 25.5127 90.5L25.3627 95C25.3627 98.15 25.6627 101.15 26.1127 104.3C27.0127 108.65 28.3627 112.55 30.3127 116.15C32.2627 119.6 34.9627 122.15 38.4127 123.65ZM213.692 138.2C209.642 132.35 206.192 127.85 203.792 125L199.442 119.6C194.042 127.7 183.992 135.05 172.592 135.05H171.992C168.092 135.05 165.242 134.15 162.692 133.4C161.642 132.95 151.742 129.8 144.992 122.75C137.192 114.8 134.192 102.8 134.192 92.75C134.192 83.45 136.742 75.65 140.042 74C140.942 73.55 143.792 72.5 145.892 71.75L152.642 69.65C151.892 68.9 150.842 67.55 149.642 65.75C148.742 64.25 142.892 55.7 142.892 48.65C142.892 46.85 143.342 45.2 144.242 43.7C145.142 42.2 146.492 41.3 149.492 39.5C149.492 39.5 157.742 34.55 171.242 34.55H171.842C174.392 34.55 176.192 34.85 176.792 35C178.142 35.15 179.642 35.6 181.292 36.05C182.792 36.65 184.442 37.25 185.942 38.15C187.442 38.9 188.942 39.8 190.292 40.85C191.642 41.9 192.842 43.1 194.042 44.45C196.892 47.45 199.292 50.9 200.942 54.8C202.742 58.85 204.092 62.9 205.142 67.25C206.042 71.45 206.642 75.8 206.942 80C207.242 84.35 207.242 88.4 207.242 92.45C207.092 96.2 206.642 99.8 205.742 103.55C208.892 106.4 212.192 109.25 215.642 112.1C222.692 117.8 229.592 122.9 236.342 127.4C234.092 129.2 231.242 131.3 227.642 133.25C222.392 136.1 217.442 137.45 213.692 138.2ZM186.542 84.5L186.692 80.45L186.542 77L186.242 74.75L185.492 70.25C185.042 68.6 184.292 65 182.342 60.65C179.792 54.65 177.542 49.1 172.142 45.35C169.592 43.55 167.042 42.65 165.392 42.2C163.892 45.2 163.442 47.75 163.442 49.25V50.15C163.442 54.35 165.092 57.65 166.142 59.75C167.042 61.25 168.242 62.75 170.342 65.45C174.842 71.15 179.792 77.15 185.342 83.3C185.792 83.75 186.092 84.2 186.542 84.5ZM172.592 123.65C174.392 122.15 176.942 119.9 179.042 116.45C181.292 112.85 182.342 109.85 183.242 106.85C183.692 105.5 183.992 104.3 184.292 102.95C179.192 97.7 173.342 91.7 165.692 83.15L161.942 78.95C160.892 82.55 160.142 86.45 159.692 90.5L159.542 95C159.542 98.15 159.842 101.15 160.292 104.3C161.192 108.65 162.542 112.55 164.492 116.15C166.442 119.6 169.142 122.15 172.592 123.65ZM244.85 135.05C234.5 135.05 224 130.7 217.4 122.45L216.35 121.1C212.6 115.85 210.95 109.25 210.95 102.5C210.95 91.25 212.45 82.7 213.8 76.7C214.7 73.1 216.2 67.4 217.7 58.7C218.9 52.4 219.5 47.15 219.95 43.7C222.2 42.2 226.1 39.95 231.5 39.2C233.45 38.9 235.1 38.75 236.6 38.75C238.25 38.75 239.6 38.9 240.65 39.05C240.05 42.35 239.3 45.5 238.55 48.65L236 58.4C234.2 65 233.6 71 232.7 82.85C232.1 89.6 231.65 98.3 231.35 108.5C231.35 109.85 231.5 111.2 231.95 112.4C233.45 116.15 236.45 119 240.05 120.05L241.55 120.2C243.8 120.2 247.1 119.15 251.9 114.2C251.9 112.85 251.75 110.9 251.45 108.65C250.7 99.2 250.25 95.9 249.65 89.75C248.6 81.35 248.15 72.65 248.15 63.5L248 54.35C248.15 45.05 248.9 37.55 249.5 32.15L269.15 34.1C268.4 37.4 267.65 42.2 267.35 47.75L267.2 50.75L267.5 58.4C268.25 71 269.3 77.6 270.5 91.25C270.5 92.3 270.8 94.25 271.1 97.1C271.55 101.6 272.15 105.35 272.45 107.15C272.9 110.45 273.5 113.6 274.25 116.9C272.6 120.2 269.9 124.55 265.7 128C259.85 132.8 252.35 135.05 244.85 135.05ZM318.653 135.05C299.753 134.9 287.603 122.3 285.503 120.05C285.503 120.05 276.803 111.65 274.103 98.3C273.653 95.9 273.353 93.95 273.353 92.3C273.353 89 274.103 86.9 274.403 86C275.603 82.85 277.703 80.3 277.703 80.3C278.003 80 278.753 79.1 279.953 78.2C280.403 77.75 282.953 75.65 286.853 74.45C289.703 73.4 292.403 73.25 294.353 73.25C293.303 68.9 292.403 64.4 291.503 59.6C290.303 52.55 289.403 45.8 288.953 39.5C291.353 38.6 295.103 37.55 299.603 37.25C301.103 37.25 302.903 37.25 305.903 37.55C309.653 37.85 315.203 38.75 322.103 40.85C322.253 39.95 322.403 38.75 322.403 37.25C322.553 35.75 322.853 34.55 323.453 33.5C325.853 33.05 328.703 32.75 331.853 32.75C338.003 32.9 343.103 34.1 346.553 35.45L346.403 43.1V50.15L346.853 57.05C347.453 62.9 348.953 68.6 350.453 73.1C348.803 73.4 347.303 73.7 345.803 73.85C342.953 74.3 340.103 74.6 337.403 74.9C335.603 73.4 328.553 67.4 322.703 62.15C321.353 60.95 319.703 59.3 317.603 56.9C315.953 55.25 314.603 53.6 313.403 52.1C314.153 57.65 315.803 65.6 319.703 74.3C324.503 84.5 330.653 91.7 335.003 96.05C331.703 96.95 328.103 97.85 324.203 98.45C320.753 99.05 317.603 99.5 314.603 99.65C312.353 98.15 309.053 95.6 305.753 92C299.753 85.55 298.553 80.9 296.903 80.9H296.753C294.803 81.2 292.853 85.4 292.853 91.4C292.853 94.4 293.303 97.85 294.653 101.45C298.103 111.05 307.553 121.7 317.453 121.7H318.653C329.453 120.65 337.553 109.7 342.353 100.85C342.953 99.95 343.253 99.2 343.553 98.6C346.703 100.1 350.153 102.05 353.903 104.6C356.453 106.4 358.703 108.2 360.653 109.85C358.853 112.85 355.853 117.05 351.353 121.25C347.753 124.4 336.053 135.05 318.653 135.05ZM467.041 135.05C448.141 134.9 435.991 122.3 433.891 120.05C433.891 120.05 425.191 111.65 422.491 98.3C422.041 95.9 421.741 93.95 421.741 92.3C421.741 89 422.491 86.9 422.791 86C423.991 82.85 426.091 80.3 426.091 80.3C426.391 80 427.141 79.1 428.341 78.2C428.791 77.75 431.341 75.65 435.241 74.45C438.091 73.4 440.791 73.25 442.741 73.25C441.691 68.9 440.791 64.4 439.891 59.6C438.691 52.55 437.791 45.8 437.341 39.5C439.741 38.6 443.491 37.55 447.991 37.25C449.491 37.25 451.291 37.25 454.291 37.55C458.041 37.85 463.591 38.75 470.491 40.85C470.641 39.95 470.791 38.75 470.791 37.25C470.941 35.75 471.241 34.55 471.841 33.5C474.241 33.05 477.091 32.75 480.241 32.75C486.391 32.9 491.491 34.1 494.941 35.45L494.791 43.1V50.15L495.241 57.05C495.841 62.9 497.341 68.6 498.841 73.1C497.191 73.4 495.691 73.7 494.191 73.85C491.341 74.3 488.491 74.6 485.791 74.9C483.991 73.4 476.941 67.4 471.091 62.15C469.741 60.95 468.091 59.3 465.991 56.9C464.341 55.25 462.991 53.6 461.791 52.1C462.541 57.65 464.191 65.6 468.091 74.3C472.891 84.5 479.041 91.7 483.391 96.05C480.091 96.95 476.491 97.85 472.591 98.45C469.141 99.05 465.991 99.5 462.991 99.65C460.741 98.15 457.441 95.6 454.141 92C448.141 85.55 446.941 80.9 445.291 80.9H445.141C443.191 81.2 441.241 85.4 441.241 91.4C441.241 94.4 441.691 97.85 443.041 101.45C446.491 111.05 455.941 121.7 465.841 121.7H467.041C477.841 120.65 485.941 109.7 490.741 100.85C491.341 99.95 491.641 99.2 491.941 98.6C495.091 100.1 498.541 102.05 502.291 104.6C504.841 106.4 507.091 108.2 509.041 109.85C507.241 112.85 504.241 117.05 499.741 121.25C496.141 124.4 484.441 135.05 467.041 135.05ZM454.441 27.5L468.841 0.649991H487.291L467.491 27.5H454.441Z" fill="url(#paint0_linear_432_2)"/>
<path d="M28.5127 133.4L25.3613 140.753L25.7988 140.941L26.2554 141.075L28.5127 133.4ZM10.8127 122.75L16.5912 117.217L16.5574 117.182L16.5232 117.147L10.8127 122.75ZM5.86269 74L9.4404 81.1554L9.44042 81.1554L5.86269 74ZM11.7127 71.75L9.33616 64.1111L9.178 64.1604L9.02201 64.2161L11.7127 71.75ZM18.4627 69.65L20.8392 77.2888L33.482 73.3556L24.1195 63.9931L18.4627 69.65ZM15.4627 65.75L8.60275 69.866L8.7007 70.0292L8.80629 70.1876L15.4627 65.75ZM10.0627 43.7L3.20275 39.584L3.20274 39.584L10.0627 43.7ZM15.3127 39.5L11.1967 32.64L11.1967 32.6401L15.3127 39.5ZM42.6127 35L40.6724 42.7611L41.1945 42.8916L41.7293 42.9511L42.6127 35ZM47.1127 36.05L50.0838 28.6222L49.659 28.4523L49.2176 28.3319L47.1127 36.05ZM51.7627 38.15L47.6468 45.0099L47.9102 45.168L48.185 45.3054L51.7627 38.15ZM56.1127 40.85L61.0242 34.5352L61.0242 34.5352L56.1127 40.85ZM59.8627 44.45L53.8834 49.7649L53.9714 49.8639L54.0627 49.96L59.8627 44.45ZM66.7627 54.8L59.395 57.9171L59.423 57.9834L59.4522 58.0491L66.7627 54.8ZM70.9627 67.25L78.7851 65.5738L78.7635 65.473L78.7394 65.3729L70.9627 67.25ZM72.7627 80L80.7437 79.4496L80.7431 79.4398L80.7424 79.43L72.7627 80ZM73.0627 92.45L81.0585 92.7079L81.0627 92.579V92.45H73.0627ZM70.9627 106.55L78.6993 108.586L78.7119 108.538L78.7238 108.49L70.9627 106.55ZM65.4127 119.3L58.7563 114.862L65.4127 119.3ZM52.3627 79.25L49.1136 86.5605L60.3627 91.5601V79.25H52.3627ZM51.3127 70.25L59.1138 68.477L59.0758 68.3102L59.0308 68.1451L51.3127 70.25ZM48.1627 60.65L40.8 63.7791L40.8306 63.8511L40.8626 63.9224L48.1627 60.65ZM37.9627 45.35L33.3492 51.8857L33.3743 51.9034L33.3995 51.921L37.9627 45.35ZM31.2127 42.2L33.3176 34.4819L26.9903 32.7562L24.0573 38.6223L31.2127 42.2ZM31.9627 59.75L24.8073 63.3277L24.9447 63.6025L25.1028 63.866L31.9627 59.75ZM36.1627 65.45L29.8479 70.3615L29.9524 70.496L30.0626 70.6258L36.1627 65.45ZM46.8127 76.1L42.2087 82.6424L42.2912 82.7005L42.3751 82.7564L46.8127 76.1ZM38.4127 123.65L35.2229 130.987L39.7456 132.953L43.5342 129.796L38.4127 123.65ZM44.8627 116.45L38.0787 112.21L38.0537 112.25L38.0291 112.29L44.8627 116.45ZM49.0627 106.85L56.7253 109.149L56.7341 109.119L56.7427 109.09L49.0627 106.85ZM51.3127 95.6L43.4057 94.3835L43.3827 94.5329L43.3654 94.683L51.3127 95.6ZM52.3627 83.45L60.3576 83.7355L60.616 76.5014L53.4436 75.5234L52.3627 83.45ZM42.4627 82.1L41.215 90.0021L41.2983 90.0153L41.3818 90.0266L42.4627 82.1ZM30.7627 78.95L27.0196 86.0203L27.1698 86.0998L27.3232 86.1729L30.7627 78.95ZM28.2127 77.6L31.9558 70.5297L23.7062 66.1623L20.6528 74.9831L28.2127 77.6ZM25.5127 90.5L17.5499 89.7294L17.5256 89.9809L17.5171 90.2335L25.5127 90.5ZM25.3627 95L17.3671 94.7335L17.3627 94.8667V95H25.3627ZM26.1127 104.3L18.1931 105.431L18.2283 105.677L18.2786 105.921L26.1127 104.3ZM30.3127 116.15L23.2784 119.96L23.3127 120.024L23.3482 120.086L30.3127 116.15ZM38.4127 127.05H37.8127V143.05H38.4127V127.05ZM37.8127 127.05C35.2119 127.05 33.3929 126.497 30.77 125.725L26.2554 141.075C28.7325 141.803 32.6135 143.05 37.8127 143.05V127.05ZM31.6641 126.047C29.6871 125.2 21.9022 122.765 16.5912 117.217L5.03423 128.283C9.28605 132.723 14.3365 135.762 18.2225 137.705C21.8333 139.511 25.7789 140.932 25.3613 140.753L31.6641 126.047ZM16.5232 117.147C10.7099 111.222 8.0127 101.586 8.0127 92.75H-7.9873C-7.9873 104.014 -4.68449 118.378 5.10223 128.353L16.5232 117.147ZM8.0127 92.75C8.0127 88.7681 8.56619 85.3259 9.32755 82.9194C9.70963 81.7118 10.0799 80.969 10.3122 80.6028C10.5998 80.1494 10.4119 80.6697 9.4404 81.1554L2.28499 66.8446C-0.336536 68.1553 -2.08061 70.2693 -3.19931 72.0331C-4.37326 73.8841 -5.25924 75.9819 -5.92716 78.0931C-7.2658 82.3241 -7.9873 87.4319 -7.9873 92.75H8.0127ZM9.44042 81.1554C9.37019 81.1905 9.47374 81.1378 9.87434 80.9749C10.2209 80.834 10.6632 80.6616 11.1749 80.4675C12.1954 80.0804 13.3796 79.6496 14.4034 79.2839L9.02201 64.2161C7.16803 64.8782 3.73088 66.1216 2.28497 66.8446L9.44042 81.1554ZM14.0892 79.3888L20.8392 77.2888L16.0862 62.0111L9.33616 64.1111L14.0892 79.3888ZM24.1195 63.9931C24.1196 63.9932 24.115 63.9886 24.1055 63.9787C24.0961 63.9688 24.0828 63.9546 24.0655 63.9358C24.0306 63.8977 23.9835 63.8448 23.9242 63.7755C23.8042 63.6353 23.6509 63.4474 23.4657 63.2073C23.0932 62.7244 22.6382 62.091 22.1191 61.3124L8.80629 70.1876C10.0961 72.1222 11.4924 73.9934 12.8058 75.3069L24.1195 63.9931ZM22.3226 61.634C21.6324 60.4836 20.3085 58.5589 18.9306 55.754C17.4936 52.8286 16.7127 50.2863 16.7127 48.65H0.712696C0.712696 54.0637 2.85679 59.3214 4.56976 62.8085C5.48665 64.675 6.42163 66.3107 7.17217 67.559C7.54895 68.1857 7.88311 68.721 8.14312 69.1342C8.32294 69.42 8.33331 69.4354 8.46648 69.6472C8.50874 69.7144 8.54102 69.766 8.56622 69.8066C8.57851 69.8264 8.58766 69.8412 8.59425 69.852C8.60094 69.8629 8.60348 69.8672 8.60275 69.866L22.3226 61.634ZM16.7127 48.65C16.7127 48.2558 16.791 48.0353 16.9226 47.8159L3.20274 39.584C1.53439 42.3647 0.712696 45.4442 0.712696 48.65H16.7127ZM16.9226 47.816C16.8632 47.915 16.7832 48.0214 16.7062 48.1044C16.6417 48.1739 16.6431 48.1577 16.7918 48.0428C16.9515 47.9194 17.2179 47.7302 17.6737 47.4378C18.1295 47.1453 18.6903 46.8029 19.4287 46.3599L11.1967 32.6401C8.57581 34.2126 5.31401 36.0653 3.20275 39.584L16.9226 47.816ZM15.3127 39.5C19.4287 46.3599 19.4263 46.3614 19.4239 46.3628C19.4232 46.3632 19.4208 46.3646 19.4193 46.3655C19.4164 46.3673 19.4135 46.369 19.4107 46.3707C19.4053 46.3739 19.4002 46.3769 19.3957 46.3796C19.3866 46.385 19.3794 46.3892 19.3741 46.3923C19.3635 46.3985 19.3605 46.4002 19.3648 46.3977C19.3736 46.3927 19.4121 46.371 19.4795 46.3347C19.6145 46.2622 19.8646 46.1322 20.224 45.9628C20.944 45.6234 22.0951 45.1293 23.6322 44.622C26.7076 43.6071 31.2952 42.55 37.0627 42.55V26.55C29.3302 26.55 23.0428 27.9678 18.6182 29.428C16.4053 30.1582 14.6502 30.9016 13.4013 31.4903C12.7764 31.785 12.2765 32.0417 11.9076 32.2398C11.7231 32.339 11.5711 32.4236 11.4524 32.4911C11.3931 32.5249 11.3421 32.5544 11.2994 32.5793C11.2781 32.5917 11.2589 32.6031 11.2418 32.6132C11.2332 32.6183 11.2252 32.6231 11.2177 32.6275C11.2139 32.6298 11.2103 32.6319 11.2068 32.634C11.2051 32.6351 11.2025 32.6366 11.2017 32.6371C11.1992 32.6386 11.1967 32.64 15.3127 39.5ZM37.0627 42.55H37.6627V26.55H37.0627V42.55ZM37.6627 42.55C38.628 42.55 39.4203 42.607 39.9855 42.6698C40.6041 42.7386 40.828 42.8 40.6724 42.7611L44.553 27.2388C43.201 26.9009 40.7335 26.55 37.6627 26.55V42.55ZM41.7293 42.9511C42.2838 43.0127 42.9636 43.2106 45.0078 43.7681L49.2176 28.3319C47.9618 27.9894 45.6416 27.2873 43.4961 27.0489L41.7293 42.9511ZM44.1416 43.4778C45.9887 44.2166 46.8455 44.5292 47.6468 45.0099L55.8786 31.29C53.6799 29.9708 51.2367 29.0833 50.0838 28.6222L44.1416 43.4778ZM48.185 45.3054C49.3218 45.8738 50.3526 46.5048 51.2012 47.1648L61.0242 34.5352C59.1728 33.0952 57.2036 31.9262 55.3404 30.9946L48.185 45.3054ZM51.2012 47.1648C52.0322 47.8111 52.8724 48.6275 53.8834 49.7649L65.842 39.1351C64.453 37.5725 62.8932 35.9888 61.0242 34.5352L51.2012 47.1648ZM54.0627 49.96C56.3511 52.3689 58.1725 55.0276 59.395 57.9171L74.1304 51.6829C72.0529 46.7724 69.0742 42.5311 65.6627 38.94L54.0627 49.96ZM59.4522 58.0491C61.0425 61.6274 62.2418 65.2152 63.186 69.1271L78.7394 65.3729C77.5836 60.5848 76.0829 56.0726 74.0732 51.5509L59.4522 58.0491ZM63.1403 68.9262C63.9583 72.7434 64.5082 76.7229 64.783 80.57L80.7424 79.43C80.4172 74.8771 79.7672 70.1566 78.7851 65.5738L63.1403 68.9262ZM64.7817 80.5504C65.0599 84.585 65.0627 88.3693 65.0627 92.45H81.0627C81.0627 88.4307 81.0655 84.115 80.7437 79.4496L64.7817 80.5504ZM65.0669 92.1921C64.9392 96.1509 64.2975 100.226 63.2016 104.61L78.7238 108.49C80.0279 103.274 80.8862 98.0491 81.0585 92.7079L65.0669 92.1921ZM63.2261 104.514C62.5653 107.025 61.3387 110.989 58.7563 114.862L72.0691 123.738C76.0867 117.711 77.8601 111.775 78.6993 108.586L63.2261 104.514ZM58.7563 114.862C54.3254 121.509 46.477 127.05 38.4127 127.05V143.05C53.4484 143.05 65.7 133.291 72.0691 123.738L58.7563 114.862ZM60.3627 79.25C60.3627 75.9503 59.9953 72.3557 59.1138 68.477L43.5116 72.023C44.1301 74.7443 44.3627 77.1497 44.3627 79.25H60.3627ZM59.0308 68.1451C58.6889 66.8914 57.7395 62.4564 55.4628 57.3775L40.8626 63.9224C42.4859 67.5436 43.0365 70.3086 43.5946 72.3549L59.0308 68.1451ZM55.5253 57.5209C53.1677 51.9735 50.1488 44.0728 42.5259 38.779L33.3995 51.921C36.5766 54.1272 38.0577 57.3265 40.8 63.7791L55.5253 57.5209ZM42.5762 38.8143C39.0243 36.3071 35.5293 35.0851 33.3176 34.4819L29.1077 49.9181C30.1961 50.2149 31.8011 50.7929 33.3492 51.8857L42.5762 38.8143ZM24.0573 38.6223C22.0681 42.6006 21.2627 46.3679 21.2627 49.25H37.2627C37.2627 49.2642 37.2624 49.1755 37.2876 48.985C37.312 48.7997 37.3571 48.5447 37.4363 48.2278C37.5949 47.5935 37.8794 46.7551 38.3681 45.7777L24.0573 38.6223ZM21.2627 49.25V50.15H37.2627V49.25H21.2627ZM21.2627 50.15C21.2627 56.4118 23.7496 61.2123 24.8073 63.3277L39.1181 56.1723C38.0758 54.0877 37.2627 52.2882 37.2627 50.15H21.2627ZM25.1028 63.866C26.3201 65.8949 27.9302 67.8959 29.8479 70.3615L42.4775 60.5385C40.1952 57.604 39.4053 56.6051 38.8226 55.634L25.1028 63.866ZM30.0626 70.6258C34.1641 75.4597 37.1909 79.1114 42.2087 82.6424L51.4166 69.5575C48.3345 67.3886 46.5613 65.3403 42.2628 60.2742L30.0626 70.6258ZM42.3751 82.7564C44.9335 84.462 47.2806 85.7458 49.1136 86.5605L55.6118 71.9395C54.7448 71.5542 53.1919 70.738 51.2503 69.4436L42.3751 82.7564ZM43.5342 129.796C45.537 128.127 48.9016 125.201 51.6963 120.61L38.0291 112.29C36.6238 114.599 34.8884 116.173 33.2912 117.504L43.5342 129.796ZM51.6467 120.69C54.4278 116.24 55.7243 112.485 56.7253 109.149L41.4001 104.551C40.6011 107.215 39.7975 109.46 38.0787 112.21L51.6467 120.69ZM56.7427 109.09C57.9246 105.038 58.7607 100.844 59.26 96.517L43.3654 94.683C42.9647 98.1561 42.3008 101.462 41.3827 104.61L56.7427 109.09ZM59.2197 96.8165C59.8833 92.5026 60.2011 88.1184 60.3576 83.7355L44.3678 83.1645C44.2243 87.1816 43.9421 90.8974 43.4057 94.3835L59.2197 96.8165ZM53.4436 75.5234L43.5436 74.1734L41.3818 90.0266L51.2818 91.3766L53.4436 75.5234ZM43.7104 74.1979C38.3039 73.3442 36.3323 72.7415 34.2022 71.7271L27.3232 86.1729C31.4931 88.1585 35.2215 89.0558 41.215 90.0021L43.7104 74.1979ZM34.5058 71.8797L31.9558 70.5297L24.4696 84.6703L27.0196 86.0203L34.5058 71.8797ZM20.6528 74.9831C19.0652 79.5695 18.051 84.5514 17.5499 89.7294L33.4755 91.2706C33.8744 87.1486 34.6602 83.4305 35.7726 80.2169L20.6528 74.9831ZM17.5171 90.2335L17.3671 94.7335L33.3583 95.2665L33.5083 90.7665L17.5171 90.2335ZM17.3627 95C17.3627 98.6653 17.7132 102.072 18.1931 105.431L34.0323 103.169C33.6122 100.228 33.3627 97.6347 33.3627 95H17.3627ZM18.2786 105.921C19.3109 110.91 20.8999 115.569 23.2784 119.96L37.347 112.34C35.8255 109.531 34.7144 106.39 33.9468 102.679L18.2786 105.921ZM23.3482 120.086C26.0617 124.887 30.0155 128.722 35.2229 130.987L41.6025 116.313C39.9099 115.578 38.4637 114.313 37.2772 112.214L23.3482 120.086ZM213.692 138.2L207.115 142.754L210.107 147.076L215.261 146.045L213.692 138.2ZM203.792 125L197.562 130.019L197.617 130.086L197.673 130.153L203.792 125ZM199.442 119.6L205.672 114.581L198.833 106.091L192.786 115.162L199.442 119.6ZM162.692 133.4L159.541 140.753L159.978 140.941L160.435 141.075L162.692 133.4ZM144.992 122.75L150.771 117.217L150.737 117.182L150.703 117.147L144.992 122.75ZM140.042 74L143.62 81.1554L143.62 81.1554L140.042 74ZM145.892 71.75L143.516 64.1111L143.358 64.1604L143.202 64.2161L145.892 71.75ZM152.642 69.65L155.019 77.2888L167.662 73.3556L158.299 63.9931L152.642 69.65ZM149.642 65.75L142.782 69.866L142.88 70.0292L142.986 70.1876L149.642 65.75ZM144.242 43.7L137.382 39.584L137.382 39.584L144.242 43.7ZM149.492 39.5L145.376 32.64V32.6401L149.492 39.5ZM176.792 35L174.852 42.7611L175.374 42.8916L175.909 42.9511L176.792 35ZM181.292 36.05L184.264 28.6222L183.839 28.4523L183.397 28.3319L181.292 36.05ZM185.942 38.15L181.826 45.0099L182.09 45.168L182.365 45.3054L185.942 38.15ZM190.292 40.85L195.204 34.5352L195.204 34.5352L190.292 40.85ZM194.042 44.45L188.063 49.7649L188.151 49.8639L188.242 49.96L194.042 44.45ZM200.942 54.8L193.575 57.9171L193.603 57.9834L193.632 58.0491L200.942 54.8ZM205.142 67.25L212.965 65.5738L212.943 65.473L212.919 65.3729L205.142 67.25ZM206.942 80L214.923 79.4496L214.923 79.4398L214.922 79.43L206.942 80ZM207.242 92.45L215.236 92.7697L215.242 92.6099V92.45H207.242ZM205.742 103.55L197.963 101.683L196.856 106.298L200.375 109.482L205.742 103.55ZM215.642 112.1L210.547 118.268L210.58 118.295L210.613 118.321L215.642 112.1ZM236.342 127.4L241.34 133.647L249.883 126.812L240.78 120.744L236.342 127.4ZM227.642 133.25L223.832 126.216L223.826 126.219L227.642 133.25ZM186.542 84.5L182.105 91.1564L194.007 99.0915L194.537 84.7961L186.542 84.5ZM186.692 80.45L194.687 80.7461L194.699 80.4243L194.685 80.1025L186.692 80.45ZM186.542 77L194.535 76.6525L194.519 76.2962L194.472 75.9427L186.542 77ZM186.242 74.75L194.172 73.6927L194.155 73.5634L194.134 73.4348L186.242 74.75ZM185.492 70.25L193.384 68.9348L193.317 68.5356L193.21 68.1451L185.492 70.25ZM182.342 60.65L174.98 63.7791L175.01 63.8511L175.042 63.9224L182.342 60.65ZM172.142 45.35L167.529 51.8857L167.554 51.9034L167.579 51.921L172.142 45.35ZM165.392 42.2L167.497 34.4819L161.17 32.7562L158.237 38.6223L165.392 42.2ZM166.142 59.75L158.987 63.3277L159.124 63.6025L159.282 63.866L166.142 59.75ZM170.342 65.45L164.028 70.3615L164.045 70.3844L164.063 70.4072L170.342 65.45ZM185.342 83.3L179.403 88.6597L179.541 88.8119L179.686 88.9568L185.342 83.3ZM172.592 123.65L169.403 130.987L173.925 132.953L177.714 129.796L172.592 123.65ZM179.042 116.45L172.258 112.21L172.233 112.25L172.209 112.29L179.042 116.45ZM183.242 106.85L175.653 104.32L175.615 104.435L175.58 104.551L183.242 106.85ZM184.292 102.95L192.102 104.685L193.038 100.472L190.031 97.3757L184.292 102.95ZM165.692 83.15L159.725 88.4781L159.73 88.4844L165.692 83.15ZM161.942 78.95L167.91 73.6219L158.302 62.8608L154.262 76.71L161.942 78.95ZM159.692 90.5L151.741 89.6165L151.707 89.9241L151.697 90.2335L159.692 90.5ZM159.542 95L151.547 94.7335L151.542 94.8667V95H159.542ZM160.292 104.3L152.373 105.431L152.408 105.677L152.458 105.921L160.292 104.3ZM164.492 116.15L157.458 119.96L157.492 120.024L157.528 120.086L164.492 116.15ZM220.27 133.646C216.119 127.651 212.515 122.939 209.912 119.847L197.673 130.153C199.869 132.761 203.166 137.049 207.115 142.754L220.27 133.646ZM210.022 119.981L205.672 114.581L193.212 124.619L197.562 130.019L210.022 119.981ZM192.786 115.162C188.429 121.697 180.611 127.05 172.592 127.05V143.05C187.374 143.05 199.655 133.703 206.099 124.038L192.786 115.162ZM172.592 127.05H171.992V143.05H172.592V127.05ZM171.992 127.05C169.392 127.05 167.573 126.497 164.95 125.725L160.435 141.075C162.912 141.803 166.793 143.05 171.992 143.05V127.05ZM165.844 126.047C163.867 125.2 156.082 122.765 150.771 117.217L139.214 128.283C143.466 132.723 148.516 135.762 152.402 137.705C156.013 139.511 159.959 140.932 159.541 140.753L165.844 126.047ZM150.703 117.147C144.89 111.222 142.192 101.586 142.192 92.75H126.192C126.192 104.014 129.495 118.378 139.282 128.353L150.703 117.147ZM142.192 92.75C142.192 88.7681 142.746 85.3259 143.507 82.9194C143.889 81.7118 144.26 80.969 144.492 80.6028C144.779 80.1494 144.592 80.6697 143.62 81.1554L136.465 66.8446C133.843 68.1553 132.099 70.2693 130.98 72.0331C129.806 73.8841 128.92 75.9819 128.253 78.0931C126.914 82.3241 126.192 87.4319 126.192 92.75H142.192ZM143.62 81.1554C143.55 81.1905 143.653 81.1378 144.054 80.9749C144.401 80.834 144.843 80.6616 145.355 80.4675C146.375 80.0804 147.559 79.6496 148.583 79.2839L143.202 64.2161C141.348 64.8782 137.911 66.1216 136.465 66.8446L143.62 81.1554ZM148.269 79.3888L155.019 77.2888L150.266 62.0111L143.516 64.1111L148.269 79.3888ZM158.299 63.9931C158.299 63.9932 158.295 63.9886 158.285 63.9787C158.276 63.9688 158.262 63.9546 158.245 63.9358C158.21 63.8977 158.163 63.8448 158.104 63.7755C157.984 63.6353 157.831 63.4474 157.645 63.2073C157.273 62.7244 156.818 62.091 156.299 61.3124L142.986 70.1876C144.276 72.1222 145.672 73.9934 146.986 75.3069L158.299 63.9931ZM156.502 61.634C155.812 60.4836 154.488 58.5589 153.11 55.754C151.673 52.8286 150.892 50.2863 150.892 48.65H134.892C134.892 54.0637 137.036 59.3214 138.749 62.8085C139.666 64.675 140.601 66.3107 141.352 67.559C141.729 68.1857 142.063 68.721 142.323 69.1342C142.503 69.42 142.513 69.4354 142.646 69.6472C142.688 69.7144 142.721 69.766 142.746 69.8066C142.758 69.8264 142.767 69.8412 142.774 69.852C142.781 69.8629 142.783 69.8672 142.782 69.866L156.502 61.634ZM150.892 48.65C150.892 48.2558 150.971 48.0353 151.102 47.8159L137.382 39.584C135.714 42.3647 134.892 45.4442 134.892 48.65H150.892ZM151.102 47.816C151.043 47.915 150.963 48.0214 150.886 48.1044C150.821 48.1739 150.823 48.1577 150.971 48.0428C151.131 47.9194 151.398 47.7302 151.853 47.4378C152.309 47.1453 152.87 46.8029 153.608 46.3599L145.376 32.6401C142.756 34.2126 139.494 36.0653 137.382 39.584L151.102 47.816ZM149.492 39.5C153.608 46.3599 153.606 46.3614 153.604 46.3628C153.603 46.3632 153.601 46.3646 153.599 46.3655C153.596 46.3673 153.593 46.369 153.59 46.3707C153.585 46.3739 153.58 46.3769 153.575 46.3796C153.566 46.385 153.559 46.3892 153.554 46.3923C153.543 46.3985 153.54 46.4002 153.545 46.3977C153.553 46.3927 153.592 46.371 153.659 46.3347C153.794 46.2622 154.044 46.1322 154.404 45.9628C155.124 45.6234 156.275 45.1293 157.812 44.622C160.887 43.6071 165.475 42.55 171.242 42.55V26.55C163.51 26.55 157.222 27.9678 152.798 29.428C150.585 30.1582 148.83 30.9016 147.581 31.4903C146.956 31.785 146.456 32.0417 146.087 32.2398C145.903 32.339 145.751 32.4236 145.632 32.4911C145.573 32.5249 145.522 32.5544 145.479 32.5793C145.458 32.5917 145.439 32.6031 145.421 32.6132C145.413 32.6183 145.405 32.6231 145.397 32.6275C145.394 32.6298 145.39 32.6319 145.386 32.634C145.385 32.6351 145.382 32.6366 145.381 32.6371C145.379 32.6386 145.376 32.64 149.492 39.5ZM171.242 42.55H171.842V26.55H171.242V42.55ZM171.842 42.55C172.808 42.55 173.6 42.607 174.165 42.6698C174.784 42.7386 175.008 42.8 174.852 42.7611L178.733 27.2388C177.381 26.9009 174.913 26.55 171.842 26.55V42.55ZM175.909 42.9511C176.463 43.0127 177.143 43.2106 179.187 43.7681L183.397 28.3319C182.141 27.9894 179.821 27.2873 177.676 27.0489L175.909 42.9511ZM178.321 43.4778C180.168 44.2166 181.025 44.5292 181.826 45.0099L190.058 31.29C187.86 29.9708 185.416 29.0833 184.264 28.6222L178.321 43.4778ZM182.365 45.3054C183.501 45.8738 184.532 46.5048 185.381 47.1648L195.204 34.5352C193.352 33.0952 191.383 31.9262 189.52 30.9946L182.365 45.3054ZM185.381 47.1648C186.212 47.8111 187.052 48.6275 188.063 49.7649L200.022 39.1351C198.633 37.5725 197.073 35.9888 195.204 34.5352L185.381 47.1648ZM188.242 49.96C190.531 52.3689 192.352 55.0276 193.575 57.9171L208.31 51.6829C206.233 46.7724 203.254 42.5311 199.842 38.94L188.242 49.96ZM193.632 58.0491C195.222 61.6274 196.421 65.2152 197.366 69.1271L212.919 65.3729C211.763 60.5848 210.263 56.0726 208.253 51.5509L193.632 58.0491ZM197.32 68.9262C198.138 72.7434 198.688 76.7229 198.963 80.57L214.922 79.43C214.597 74.8771 213.947 70.1566 212.965 65.5738L197.32 68.9262ZM198.961 80.5504C199.24 84.585 199.242 88.3693 199.242 92.45H215.242C215.242 88.4307 215.245 84.115 214.923 79.4496L198.961 80.5504ZM199.249 92.1303C199.117 95.4236 198.727 98.5 197.963 101.683L213.521 105.417C214.558 101.1 215.068 96.9764 215.236 92.7697L199.249 92.1303ZM200.375 109.482C203.619 112.417 207.01 115.345 210.547 118.268L220.737 105.932C217.375 103.155 214.166 100.383 211.11 97.6177L200.375 109.482ZM210.613 118.321C217.831 124.158 224.929 129.406 231.905 134.056L240.78 120.744C234.256 116.394 227.553 111.442 220.672 105.879L210.613 118.321ZM231.345 121.153C229.308 122.782 226.867 124.572 223.832 126.216L231.453 140.284C235.618 138.028 238.877 135.618 241.34 133.647L231.345 121.153ZM223.826 126.219C219.502 128.566 215.382 129.704 212.123 130.355L215.261 146.045C219.503 145.196 225.283 143.634 231.459 140.281L223.826 126.219ZM194.537 84.7961L194.687 80.7461L178.698 80.1539L178.548 84.2039L194.537 84.7961ZM194.685 80.1025L194.535 76.6525L178.55 77.3475L178.7 80.7975L194.685 80.1025ZM194.472 75.9427L194.172 73.6927L178.313 75.8073L178.613 78.0573L194.472 75.9427ZM194.134 73.4348L193.384 68.9348L177.601 71.5652L178.351 76.0652L194.134 73.4348ZM193.21 68.1451C192.869 66.8914 191.919 62.4564 189.642 57.3775L175.042 63.9224C176.666 67.5436 177.216 70.3086 177.774 72.3549L193.21 68.1451ZM189.705 57.5209C187.347 51.9735 184.329 44.0728 176.706 38.779L167.579 51.921C170.756 54.1272 172.237 57.3265 174.98 63.7791L189.705 57.5209ZM176.756 38.8143C173.204 36.3071 169.709 35.0851 167.497 34.4819L163.287 49.9181C164.376 50.2149 165.981 50.7929 167.529 51.8857L176.756 38.8143ZM158.237 38.6223C156.248 42.6006 155.442 46.3679 155.442 49.25H171.442C171.442 49.2642 171.442 49.1755 171.467 48.985C171.492 48.7997 171.537 48.5447 171.616 48.2278C171.775 47.5935 172.059 46.7551 172.548 45.7777L158.237 38.6223ZM155.442 49.25V50.15H171.442V49.25H155.442ZM155.442 50.15C155.442 56.4118 157.929 61.2123 158.987 63.3277L173.298 56.1723C172.256 54.0877 171.442 52.2882 171.442 50.15H155.442ZM159.282 63.866C160.5 65.8949 162.11 67.8959 164.028 70.3615L176.657 60.5385C174.375 57.604 173.585 56.6051 173.002 55.634L159.282 63.866ZM164.063 70.4072C168.639 76.2035 173.705 82.3452 179.403 88.6597L191.282 77.9403C185.88 71.9548 181.045 66.0965 176.621 60.4928L164.063 70.4072ZM179.686 88.9568C179.645 88.9164 179.635 88.903 179.691 88.9658C179.724 89.0023 179.75 89.0319 179.811 89.101C179.863 89.1592 179.939 89.2449 180.023 89.3376C180.334 89.6803 181.049 90.4525 182.105 91.1564L190.98 77.8436C191.296 78.0543 191.528 78.2531 191.672 78.3869C191.743 78.4531 191.796 78.5058 191.826 78.5369C191.855 78.5673 191.87 78.5834 191.862 78.5749C191.852 78.5645 191.835 78.5447 191.791 78.4956C191.781 78.4839 191.77 78.472 191.758 78.458C191.746 78.4445 191.732 78.4292 191.719 78.4134C191.691 78.3819 191.658 78.3446 191.622 78.3045C191.481 78.147 191.265 77.9086 190.999 77.6432L179.686 88.9568ZM177.714 129.796C179.717 128.127 183.081 125.201 185.876 120.61L172.209 112.29C170.803 114.599 169.068 116.173 167.471 117.504L177.714 129.796ZM185.826 120.69C188.608 116.24 189.904 112.485 190.905 109.149L175.58 104.551C174.781 107.215 173.977 109.46 172.258 112.21L185.826 120.69ZM190.832 109.38C191.403 107.666 191.772 106.171 192.102 104.685L176.483 101.215C176.213 102.429 175.982 103.334 175.653 104.32L190.832 109.38ZM190.031 97.3757C184.934 92.1295 179.185 86.2323 171.654 77.8156L159.73 88.4844C167.5 97.1677 173.45 103.27 178.554 108.524L190.031 97.3757ZM171.66 77.8219L167.91 73.6219L155.975 84.2781L159.725 88.4781L171.66 77.8219ZM154.262 76.71C153.067 80.8076 152.236 85.1671 151.741 89.6165L167.643 91.3835C168.049 87.7329 168.718 84.2924 169.622 81.19L154.262 76.71ZM151.697 90.2335L151.547 94.7335L167.538 95.2665L167.688 90.7665L151.697 90.2335ZM151.542 95C151.542 98.6653 151.893 102.072 152.373 105.431L168.212 103.169C167.792 100.228 167.542 97.6347 167.542 95H151.542ZM152.458 105.921C153.491 110.91 155.08 115.569 157.458 119.96L171.527 112.34C170.005 109.531 168.894 106.39 168.126 102.679L152.458 105.921ZM157.528 120.086C160.241 124.887 164.195 128.722 169.403 130.987L175.782 116.313C174.09 115.578 172.643 114.313 171.457 112.214L157.528 120.086ZM217.4 122.45L211.085 127.362L211.119 127.405L211.153 127.448L217.4 122.45ZM216.35 121.1L209.84 125.75L209.935 125.883L210.035 126.012L216.35 121.1ZM213.8 76.7L206.039 74.7597L206.016 74.8515L205.995 74.9439L213.8 76.7ZM217.7 58.7L209.841 57.2031L209.828 57.2718L209.817 57.3407L217.7 58.7ZM219.95 43.7L215.513 37.0436L212.488 39.0602L212.017 42.6653L219.95 43.7ZM231.5 39.2L232.601 47.1239L232.659 47.1159L232.717 47.107L231.5 39.2ZM240.65 39.05L248.521 40.4811L250.008 32.3055L241.782 31.1304L240.65 39.05ZM238.55 48.65L246.29 50.6742L246.312 50.5888L246.333 50.503L238.55 48.65ZM236 58.4L243.718 60.5049L243.729 60.4646L243.74 60.4242L236 58.4ZM232.7 82.85L240.669 83.5583L240.673 83.5071L240.677 83.4558L232.7 82.85ZM231.35 108.5L223.354 108.265L223.35 108.382V108.5H231.35ZM231.95 112.4L224.46 115.209L224.49 115.29L224.522 115.371L231.95 112.4ZM240.05 120.05L237.81 127.73L238.519 127.937L239.254 128.01L240.05 120.05ZM241.55 120.2L240.754 128.16L241.151 128.2H241.55V120.2ZM251.9 114.2L257.643 119.769L259.9 117.442V114.2H251.9ZM251.45 108.65L243.475 109.283L243.492 109.496L243.52 109.707L251.45 108.65ZM249.65 89.75L257.612 88.9732L257.602 88.8653L257.588 88.7577L249.65 89.75ZM248.15 63.5H256.15V63.4344L256.149 63.3689L248.15 63.5ZM248 54.35L240.001 54.221L239.999 54.3511L240.001 54.4811L248 54.35ZM249.5 32.15L250.29 24.1891L242.422 23.4083L241.549 31.2666L249.5 32.15ZM269.15 34.1L276.951 35.873L278.96 27.0342L269.94 26.1391L269.15 34.1ZM267.35 47.75L259.362 47.3182L259.361 47.3343L259.36 47.3505L267.35 47.75ZM267.2 50.75L259.21 50.3505L259.192 50.7069L259.206 51.0635L267.2 50.75ZM267.5 58.4L259.506 58.7135L259.51 58.7945L259.514 58.8754L267.5 58.4ZM270.5 91.25H278.5V90.899L278.469 90.5494L270.5 91.25ZM271.1 97.1L279.06 96.304L279.058 96.2832L279.056 96.2625L271.1 97.1ZM272.45 107.15L280.377 106.069L280.361 105.952L280.341 105.835L272.45 107.15ZM274.25 116.9L281.406 120.478L282.686 117.918L282.051 115.127L274.25 116.9ZM265.7 128L270.775 134.185L270.778 134.182L265.7 128ZM244.85 127.05C236.59 127.05 228.528 123.554 223.647 117.452L211.153 127.448C219.472 137.846 232.411 143.05 244.85 143.05V127.05ZM223.715 117.538L222.665 116.188L210.035 126.012L211.085 127.362L223.715 117.538ZM222.86 116.45C220.308 112.877 218.95 108.025 218.95 102.5H202.95C202.95 110.475 204.892 118.823 209.84 125.75L222.86 116.45ZM218.95 102.5C218.95 91.9938 220.346 84.0511 221.605 78.4561L205.995 74.9439C204.554 81.3489 202.95 90.5062 202.95 102.5H218.95ZM221.561 78.6403C222.458 75.052 224.027 69.0874 225.584 60.0592L209.817 57.3407C208.373 65.7126 206.942 71.148 206.039 74.7597L221.561 78.6403ZM225.559 60.1969C226.814 53.6086 227.448 48.0707 227.883 44.7347L212.017 42.6653C211.553 46.2293 210.987 51.1914 209.841 57.2031L225.559 60.1969ZM224.388 50.3564C226.128 49.1965 228.868 47.6424 232.601 47.1239L230.4 31.2761C223.333 32.2576 218.273 35.2035 215.513 37.0436L224.388 50.3564ZM232.717 47.107C234.405 46.8472 235.629 46.75 236.6 46.75V30.75C234.572 30.75 232.495 30.9528 230.284 31.293L232.717 47.107ZM236.6 46.75C237.752 46.75 238.703 46.8531 239.519 46.9696L241.782 31.1304C240.497 30.9469 238.748 30.75 236.6 30.75V46.75ZM232.779 37.6189C232.224 40.6733 231.525 43.6176 230.768 46.797L246.333 50.503C247.076 47.3824 247.876 44.0267 248.521 40.4811L232.779 37.6189ZM230.811 46.6258L228.261 56.3758L243.74 60.4242L246.29 50.6742L230.811 46.6258ZM228.282 56.2951C226.253 63.7334 225.618 70.46 224.723 82.2441L240.677 83.4558C241.582 71.54 242.147 66.2666 243.718 60.5049L228.282 56.2951ZM224.732 82.1417C224.112 89.112 223.656 97.9861 223.354 108.265L239.347 108.735C239.644 98.6139 240.088 90.088 240.669 83.5583L224.732 82.1417ZM223.35 108.5C223.35 110.361 223.545 112.77 224.46 115.209L239.441 109.591C239.457 109.634 239.43 109.576 239.401 109.375C239.372 109.174 239.35 108.888 239.35 108.5H223.35ZM224.522 115.371C226.843 121.173 231.62 125.924 237.81 127.73L242.29 112.37C241.281 112.076 240.057 111.127 239.378 109.429L224.522 115.371ZM239.254 128.01L240.754 128.16L242.346 112.24L240.846 112.09L239.254 128.01ZM241.55 128.2C246.768 128.2 252.007 125.581 257.643 119.769L246.157 108.631C242.193 112.719 240.832 112.2 241.55 112.2V128.2ZM259.9 114.2C259.9 112.366 259.706 110.035 259.38 107.593L243.52 109.707C243.795 111.765 243.9 113.334 243.9 114.2H259.9ZM259.425 108.017C258.668 98.4794 258.194 94.9394 257.612 88.9732L241.688 90.5268C242.306 96.8606 242.732 99.9206 243.475 109.283L259.425 108.017ZM257.588 88.7577C256.588 80.7517 256.15 72.3907 256.15 63.5H240.15C240.15 72.9093 240.613 81.9483 241.712 90.7423L257.588 88.7577ZM256.149 63.3689L255.999 54.2189L240.001 54.4811L240.151 63.6311L256.149 63.3689ZM255.999 54.479C256.143 45.5447 256.863 38.3293 257.451 33.0334L241.549 31.2666C240.938 36.7707 240.157 44.5553 240.001 54.221L255.999 54.479ZM248.71 40.1109L268.36 42.0609L269.94 26.1391L250.29 24.1891L248.71 40.1109ZM261.349 32.327C260.496 36.0825 259.685 41.3317 259.362 47.3182L275.339 48.1818C275.615 43.0683 276.305 38.7175 276.951 35.873L261.349 32.327ZM259.36 47.3505L259.21 50.3505L275.19 51.1495L275.34 48.1495L259.36 47.3505ZM259.206 51.0635L259.506 58.7135L275.494 58.0865L275.194 50.4365L259.206 51.0635ZM259.514 58.8754C260.268 71.5451 261.379 78.8416 262.531 91.9506L278.469 90.5494C277.222 76.3584 276.232 70.4549 275.486 57.9246L259.514 58.8754ZM262.5 91.25C262.5 92.3175 262.639 93.5364 262.74 94.417C262.864 95.486 262.999 96.5622 263.144 97.9375L279.056 96.2625C278.901 94.7878 278.737 93.464 278.635 92.583C278.512 91.5136 278.5 91.2325 278.5 91.25H262.5ZM263.14 97.896C263.615 102.644 264.246 106.587 264.559 108.465L280.341 105.835C280.054 104.113 279.486 100.556 279.06 96.304L263.14 97.896ZM264.524 108.231C265.011 111.808 265.658 115.193 266.449 118.673L282.051 115.127C281.342 112.007 280.789 109.092 280.377 106.069L264.524 108.231ZM267.095 113.322C265.71 116.092 263.622 119.354 260.622 121.818L270.778 134.182C276.178 129.746 279.49 124.308 281.406 120.478L267.095 113.322ZM260.626 121.815C256.43 125.258 250.812 127.05 244.85 127.05V143.05C253.888 143.05 263.27 140.342 270.775 134.185L260.626 121.815ZM318.653 135.05L318.589 143.05L318.621 143.05H318.653V135.05ZM285.503 120.05L291.351 114.591L291.209 114.439L291.059 114.295L285.503 120.05ZM274.103 98.3L266.24 99.7743L266.25 99.8302L266.261 99.8859L274.103 98.3ZM274.403 86L266.927 83.152L266.866 83.3099L266.813 83.4702L274.403 86ZM277.703 80.3L272.046 74.6432L271.773 74.9162L271.527 75.2143L277.703 80.3ZM279.953 78.2L284.753 84.6L285.207 84.2589L285.609 83.8568L279.953 78.2ZM286.853 74.45L289.205 82.0962L289.414 82.0321L289.618 81.9567L286.853 74.45ZM294.353 73.25V81.25H304.513L302.129 71.3729L294.353 73.25ZM291.503 59.6L283.616 60.9424L283.627 61.0084L283.64 61.0743L291.503 59.6ZM288.953 39.5L286.144 32.0094L280.547 34.1081L280.973 40.07L288.953 39.5ZM299.603 37.25V29.25H299.336L299.07 29.2677L299.603 37.25ZM305.903 37.55L305.107 45.5103L305.185 45.5182L305.265 45.5245L305.903 37.55ZM322.103 40.85L319.773 48.5034L328.495 51.1578L329.994 42.1652L322.103 40.85ZM322.403 37.25L314.442 36.454L314.403 36.851V37.25H322.403ZM323.453 33.5L321.978 25.637L318.342 26.3188L316.507 29.5309L323.453 33.5ZM331.853 32.75L332.048 24.7524L331.95 24.75H331.853V32.75ZM346.553 35.45L354.551 35.6068L354.66 30.0319L349.468 28.0001L346.553 35.45ZM346.403 43.1L338.404 42.9432L338.403 43.0216V43.1H346.403ZM346.403 50.15H338.403V50.4106L338.419 50.6706L346.403 50.15ZM346.853 57.05L338.87 57.5706L338.879 57.7187L338.894 57.8662L346.853 57.05ZM350.453 73.1L351.884 80.971L360.959 79.3209L358.042 70.5702L350.453 73.1ZM345.803 73.85L345.007 65.8897L344.78 65.9124L344.555 65.9479L345.803 73.85ZM337.403 74.9L332.281 81.0458L334.899 83.2274L338.286 82.8511L337.403 74.9ZM322.703 62.15L328.046 56.1961L328.032 56.1834L328.017 56.1707L322.703 62.15ZM317.603 56.9L323.623 51.632L323.448 51.4315L323.259 51.2432L317.603 56.9ZM313.403 52.1L319.65 47.1024L301.607 24.549L305.475 53.1713L313.403 52.1ZM319.703 74.3L312.402 77.5724L312.433 77.6397L312.464 77.7064L319.703 74.3ZM335.003 96.05L337.107 103.768L350.407 100.141L340.659 90.3931L335.003 96.05ZM324.203 98.45L322.986 90.543L322.909 90.5549L322.832 90.5683L324.203 98.45ZM314.603 99.65L310.165 106.306L312.363 107.772L315.002 107.64L314.603 99.65ZM305.753 92L311.65 86.5942L311.63 86.5726L311.61 86.5512L305.753 92ZM296.753 80.9V72.9H296.141L295.536 72.993L296.753 80.9ZM294.653 101.45L302.181 98.7444L302.163 98.6926L302.143 98.641L294.653 101.45ZM318.653 121.7V129.7H319.041L319.427 129.662L318.653 121.7ZM342.353 100.85L335.696 96.4124L335.494 96.7156L335.32 97.0359L342.353 100.85ZM343.553 98.6L346.992 91.3771L339.907 88.0032L336.397 95.0223L343.553 98.6ZM353.903 104.6L358.516 98.0643L358.459 98.0239L358.401 97.9846L353.903 104.6ZM360.653 109.85L367.512 113.966L371.011 108.135L365.82 103.743L360.653 109.85ZM351.353 121.25L356.621 127.271L356.717 127.186L356.811 127.098L351.353 121.25ZM318.716 127.05C303.315 126.928 293.169 116.54 291.351 114.591L279.654 125.509C282.036 128.06 296.19 142.872 318.589 143.05L318.716 127.05ZM285.503 120.05C291.059 114.295 291.061 114.296 291.063 114.298C291.063 114.299 291.065 114.3 291.066 114.301C291.068 114.303 291.07 114.305 291.072 114.307C291.076 114.311 291.079 114.314 291.082 114.317C291.087 114.322 291.091 114.326 291.092 114.327C291.095 114.33 291.091 114.325 291.079 114.313C291.054 114.289 291.001 114.234 290.921 114.151C290.762 113.983 290.5 113.7 290.163 113.308C289.486 112.522 288.52 111.316 287.471 109.744C285.355 106.57 283.032 102.095 281.944 96.7141L266.261 99.8859C267.873 107.855 271.25 114.255 274.159 118.619C275.623 120.815 277 122.543 278.039 123.749C278.56 124.354 278.999 124.831 279.326 125.175C279.489 125.347 279.625 125.486 279.73 125.592C279.782 125.644 279.826 125.688 279.863 125.724C279.881 125.742 279.897 125.757 279.911 125.771C279.918 125.778 279.924 125.784 279.93 125.79C279.933 125.793 279.936 125.795 279.938 125.798C279.94 125.799 279.941 125.801 279.942 125.802C279.944 125.803 279.946 125.805 285.503 120.05ZM281.966 96.8257C281.515 94.4205 281.353 93.1276 281.353 92.3H265.353C265.353 94.7724 265.791 97.3795 266.24 99.7743L281.966 96.8257ZM281.353 92.3C281.353 91.2669 281.469 90.4802 281.587 89.9262C281.707 89.3672 281.832 89.0108 281.992 88.5298L266.813 83.4702C266.439 84.5917 265.353 87.6816 265.353 92.3H281.353ZM281.878 88.848C282.203 87.9953 282.706 87.0994 283.196 86.35C283.428 85.995 283.63 85.7154 283.762 85.5393C283.827 85.4522 283.873 85.3931 283.895 85.3658C283.905 85.3522 283.91 85.3467 283.907 85.3498C283.906 85.3514 283.903 85.3551 283.898 85.3611C283.896 85.364 283.893 85.3676 283.889 85.3717C283.888 85.3737 283.886 85.3759 283.884 85.3782C283.883 85.3794 283.882 85.3806 283.881 85.3818C283.881 85.3825 283.88 85.3834 283.88 85.3837C283.879 85.3847 283.878 85.3857 277.703 80.3C271.527 75.2143 271.526 75.2153 271.525 75.2163C271.525 75.2167 271.524 75.2177 271.524 75.2184C271.523 75.2198 271.521 75.2212 271.52 75.2227C271.518 75.2257 271.515 75.2288 271.513 75.2321C271.507 75.2386 271.501 75.2459 271.495 75.2538C271.482 75.2696 271.467 75.288 271.45 75.309C271.416 75.351 271.374 75.4034 271.325 75.4657C271.227 75.5901 271.1 75.7548 270.949 75.956C270.65 76.3564 270.252 76.9112 269.809 77.5875C268.949 78.9006 267.802 80.8547 266.927 83.152L281.878 88.848ZM283.359 85.9568C283.496 85.8201 283.617 85.6917 283.676 85.6279C283.72 85.5811 283.838 85.4548 283.86 85.4304C283.965 85.3188 284.053 85.2257 284.147 85.1319C284.333 84.9453 284.533 84.7643 284.753 84.6L275.153 71.8C273.346 73.1548 271.81 74.8792 272.046 74.6432L283.359 85.9568ZM285.609 83.8568C285.385 84.0808 285.333 84.1003 285.544 83.9385C285.703 83.8161 285.966 83.6273 286.32 83.4084C287.037 82.9646 288.027 82.4587 289.205 82.0962L284.5 66.8038C279.226 68.4264 275.57 71.2689 274.296 72.5432L285.609 83.8568ZM289.618 81.9567C291.184 81.38 292.799 81.25 294.353 81.25V65.25C292.006 65.25 288.221 65.42 284.087 66.9433L289.618 81.9567ZM302.129 71.3729C301.127 67.2218 300.257 62.8788 299.366 58.1257L283.64 61.0743C284.548 65.9212 285.478 70.5782 286.576 75.1271L302.129 71.3729ZM299.389 58.2576C298.217 51.3742 297.358 44.8944 296.932 38.93L280.973 40.07C281.447 46.7056 282.388 53.7258 283.616 60.9424L299.389 58.2576ZM291.762 46.9906C293.563 46.3149 296.543 45.4717 300.135 45.2323L299.07 29.2677C293.662 29.6283 289.142 30.885 286.144 32.0094L291.762 46.9906ZM299.603 45.25C300.991 45.25 302.49 45.2486 305.107 45.5103L306.699 29.5897C303.315 29.2514 301.214 29.25 299.603 29.25V45.25ZM305.265 45.5245C308.408 45.776 313.391 46.5611 319.773 48.5034L324.432 33.1966C317.014 30.9389 310.897 29.924 306.54 29.5755L305.265 45.5245ZM329.994 42.1652C330.196 40.9532 330.403 39.2997 330.403 37.25H314.403C314.403 38.2003 314.309 38.9468 314.211 39.5348L329.994 42.1652ZM330.363 38.046C330.408 37.5986 330.457 37.3841 330.477 37.3112C330.491 37.2592 330.474 37.3361 330.398 37.4691L316.507 29.5309C315.14 31.9228 314.652 34.3524 314.442 36.454L330.363 38.046ZM324.927 41.363C326.845 41.0034 329.201 40.75 331.853 40.75V24.75C328.204 24.75 324.86 25.0966 321.978 25.637L324.927 41.363ZM331.657 40.7476C336.922 40.876 341.097 41.906 343.637 42.8999L349.468 28.0001C345.108 26.294 339.083 24.924 332.048 24.7524L331.657 40.7476ZM338.554 35.2932L338.404 42.9432L354.401 43.2568L354.551 35.6068L338.554 35.2932ZM338.403 43.1V50.15H354.403V43.1H338.403ZM338.419 50.6706L338.87 57.5706L354.836 56.5294L354.386 49.6294L338.419 50.6706ZM338.894 57.8662C339.573 64.4787 341.245 70.7761 342.863 75.6298L358.042 70.5702C356.66 66.4239 355.333 61.3213 354.811 56.2338L338.894 57.8662ZM349.021 65.229C347.161 65.5673 346.096 65.7807 345.007 65.8897L346.599 81.8103C348.509 81.6193 350.444 81.2327 351.884 80.971L349.021 65.229ZM344.555 65.9479C341.929 66.3625 339.294 66.6406 336.519 66.9489L338.286 82.8511C340.911 82.5594 343.976 82.2375 347.05 81.7521L344.555 65.9479ZM342.524 68.7542C340.785 67.3053 333.811 61.3698 328.046 56.1961L317.359 68.1039C323.294 73.4302 330.42 79.4947 332.281 81.0458L342.524 68.7542ZM328.017 56.1707C326.971 55.2403 325.556 53.8405 323.623 51.632L311.582 62.168C313.849 64.7594 315.734 66.6597 317.388 68.1293L328.017 56.1707ZM323.259 51.2432C321.94 49.9234 320.818 48.5636 319.65 47.1024L307.156 57.0976C308.387 58.6364 309.965 60.5766 311.946 62.5568L323.259 51.2432ZM305.475 53.1713C306.296 59.2523 308.106 67.9891 312.402 77.5724L327.003 71.0275C323.499 63.2109 322.009 56.0477 321.33 51.0287L305.475 53.1713ZM312.464 77.7064C317.765 88.97 324.548 96.9092 329.346 101.707L340.659 90.3931C336.757 86.4908 331.241 80.03 326.941 70.8936L312.464 77.7064ZM332.898 88.3319C329.704 89.2028 326.443 90.0112 322.986 90.543L325.419 106.357C329.762 105.689 333.701 104.697 337.107 103.768L332.898 88.3319ZM322.832 90.5683C319.491 91.1494 316.716 91.5343 314.203 91.66L315.002 107.64C318.489 107.466 322.014 106.951 325.573 106.332L322.832 90.5683ZM319.04 92.9936C317.232 91.7879 314.445 89.6439 311.65 86.5942L299.855 97.4058C303.66 101.556 307.474 104.512 310.165 106.306L319.04 92.9936ZM311.61 86.5512C309.108 83.8619 307.617 81.5715 306.44 79.7279C305.952 78.9635 305.147 77.663 304.334 76.6673C303.779 75.9874 301.289 72.9 296.903 72.9V88.9C295.092 88.9 293.735 88.2271 292.966 87.6961C292.286 87.2271 291.942 86.7889 291.941 86.7874C291.912 86.7517 291.975 86.826 292.182 87.1385C292.386 87.4456 292.613 87.803 292.952 88.3346C294.288 90.4285 296.397 93.688 299.895 97.4488L311.61 86.5512ZM296.903 72.9H296.753V88.9H296.903V72.9ZM295.536 72.993C292.469 73.4648 290.408 75.2714 289.264 76.5973C288.057 77.9958 287.222 79.5869 286.638 81.0545C285.459 84.0184 284.853 87.6075 284.853 91.4H300.853C300.853 89.1925 301.221 87.6816 301.504 86.9705C301.652 86.6006 301.67 86.7104 301.378 87.0496C301.148 87.3161 300.061 88.4852 297.969 88.807L295.536 72.993ZM284.853 91.4C284.853 95.1989 285.423 99.6219 287.162 104.259L302.143 98.641C301.182 96.0781 300.853 93.6011 300.853 91.4H284.853ZM287.124 104.156C289.268 110.122 293.177 116.235 298.099 120.951C302.934 125.584 309.654 129.7 317.453 129.7V113.7C315.351 113.7 312.396 112.491 309.168 109.399C306.028 106.39 303.487 102.378 302.181 98.7444L287.124 104.156ZM317.453 129.7H318.653V113.7H317.453V129.7ZM319.427 129.662C327.363 128.891 333.716 124.55 338.409 119.857C343.134 115.133 346.787 109.454 349.385 104.664L335.32 97.0359C333.118 101.096 330.321 105.317 327.096 108.543C323.839 111.8 320.743 113.459 317.878 113.738L319.427 129.662ZM349.009 105.288C349.977 103.835 350.705 102.184 350.708 102.178L336.397 95.0223C336.273 95.2702 336.155 95.521 336.089 95.6621C336.009 95.8312 335.959 95.9362 335.91 96.0348C335.824 96.2068 335.762 96.3136 335.696 96.4124L349.009 105.288ZM340.113 105.823C342.877 107.139 345.974 108.883 349.404 111.215L358.401 97.9846C354.331 95.2167 350.528 93.0608 346.992 91.3771L340.113 105.823ZM349.289 111.136C351.599 112.766 353.661 114.414 355.485 115.957L365.82 103.743C363.744 101.986 361.306 100.034 358.516 98.0643L349.289 111.136ZM353.793 105.734C352.304 108.214 349.754 111.798 345.894 115.402L356.811 127.098C361.951 122.302 365.401 117.486 367.512 113.966L353.793 105.734ZM346.085 115.229C342.477 118.386 332.794 127.05 318.653 127.05V143.05C339.311 143.05 353.028 130.414 356.621 127.271L346.085 115.229ZM467.041 135.05L466.978 143.05L467.009 143.05H467.041V135.05ZM433.891 120.05L439.74 114.591L439.598 114.439L439.448 114.295L433.891 120.05ZM422.491 98.3L414.628 99.7743L414.639 99.8302L414.65 99.8859L422.491 98.3ZM422.791 86L415.315 83.152L415.255 83.3099L415.202 83.4702L422.791 86ZM426.091 80.3L420.434 74.6432L420.161 74.9162L419.916 75.2143L426.091 80.3ZM428.341 78.2L433.141 84.6L433.596 84.2589L433.998 83.8568L428.341 78.2ZM435.241 74.45L437.594 82.0962L437.802 82.0321L438.007 81.9567L435.241 74.45ZM442.741 73.25V81.25H452.902L450.518 71.3729L442.741 73.25ZM439.891 59.6L432.005 60.9424L432.016 61.0084L432.028 61.0743L439.891 59.6ZM437.341 39.5L434.532 32.0094L428.936 34.1081L429.362 40.07L437.341 39.5ZM447.991 37.25V29.25H447.725L447.459 29.2677L447.991 37.25ZM454.291 37.55L453.495 45.5103L453.574 45.5182L453.653 45.5245L454.291 37.55ZM470.491 40.85L468.162 48.5034L476.884 51.1578L478.382 42.1652L470.491 40.85ZM470.791 37.25L462.831 36.454L462.791 36.851V37.25H470.791ZM471.841 33.5L470.367 25.637L466.731 26.3188L464.895 29.5309L471.841 33.5ZM480.241 32.75L480.436 24.7524L480.339 24.75H480.241V32.75ZM494.941 35.45L502.94 35.6068L503.049 30.0319L497.856 28.0001L494.941 35.45ZM494.791 43.1L486.793 42.9432L486.791 43.0216V43.1H494.791ZM494.791 50.15H486.791V50.4106L486.808 50.6706L494.791 50.15ZM495.241 57.05L487.258 57.5706L487.268 57.7187L487.283 57.8662L495.241 57.05ZM498.841 73.1L500.272 80.971L509.348 79.3209L506.431 70.5702L498.841 73.1ZM494.191 73.85L493.395 65.8897L493.169 65.9124L492.944 65.9479L494.191 73.85ZM485.791 74.9L480.67 81.0458L483.288 83.2274L486.675 82.8511L485.791 74.9ZM471.091 62.15L476.435 56.1961L476.42 56.1834L476.406 56.1707L471.091 62.15ZM465.991 56.9L472.012 51.632L471.836 51.4315L471.648 51.2432L465.991 56.9ZM461.791 52.1L468.038 47.1024L449.995 24.549L453.863 53.1713L461.791 52.1ZM468.091 74.3L460.791 77.5724L460.821 77.6397L460.853 77.7064L468.091 74.3ZM483.391 96.05L485.496 103.768L498.796 100.141L489.048 90.3931L483.391 96.05ZM472.591 98.45L471.375 90.543L471.297 90.5549L471.22 90.5683L472.591 98.45ZM462.991 99.65L458.554 106.306L460.752 107.772L463.391 107.64L462.991 99.65ZM454.141 92L460.038 86.5942L460.019 86.5726L459.999 86.5512L454.141 92ZM445.141 80.9V72.9H444.529L443.925 72.993L445.141 80.9ZM443.041 101.45L450.57 98.7444L450.551 98.6926L450.532 98.641L443.041 101.45ZM467.041 121.7V129.7H467.429L467.815 129.662L467.041 121.7ZM490.741 100.85L484.085 96.4124L483.883 96.7156L483.709 97.0359L490.741 100.85ZM491.941 98.6L495.381 91.3771L488.295 88.0032L484.786 95.0223L491.941 98.6ZM502.291 104.6L506.905 98.0643L506.848 98.0239L506.79 97.9846L502.291 104.6ZM509.041 109.85L515.901 113.966L519.4 108.135L514.209 103.743L509.041 109.85ZM499.741 121.25L505.009 127.271L505.106 127.186L505.2 127.098L499.741 121.25ZM454.441 27.5L447.391 23.7189L441.073 35.5H454.441V27.5ZM468.841 0.649991V-7.35001H464.054L461.791 -3.13106L468.841 0.649991ZM487.291 0.649991L493.73 5.39804L503.131 -7.35001H487.291V0.649991ZM467.491 27.5V35.5H471.532L473.93 32.248L467.491 27.5ZM467.105 127.05C451.703 126.928 441.558 116.54 439.74 114.591L428.043 125.509C430.424 128.06 444.579 142.872 466.978 143.05L467.105 127.05ZM433.891 120.05C439.448 114.295 439.45 114.296 439.451 114.298C439.452 114.299 439.454 114.3 439.455 114.301C439.457 114.303 439.459 114.305 439.461 114.307C439.465 114.311 439.468 114.314 439.471 114.317C439.476 114.322 439.48 114.326 439.481 114.327C439.484 114.33 439.479 114.325 439.467 114.313C439.443 114.289 439.389 114.234 439.31 114.151C439.151 113.983 438.889 113.7 438.552 113.308C437.875 112.522 436.908 111.316 435.86 109.744C433.744 106.57 431.421 102.095 430.332 96.7141L414.65 99.8859C416.262 107.855 419.638 114.255 422.547 118.619C424.012 120.815 425.389 122.543 426.428 123.749C426.948 124.354 427.387 124.831 427.714 125.175C427.878 125.347 428.014 125.486 428.118 125.592C428.171 125.644 428.215 125.688 428.251 125.724C428.269 125.742 428.285 125.757 428.299 125.771C428.306 125.778 428.313 125.784 428.318 125.79C428.321 125.793 428.324 125.795 428.327 125.798C428.328 125.799 428.33 125.801 428.331 125.802C428.333 125.803 428.334 125.805 433.891 120.05ZM430.354 96.8257C429.903 94.4205 429.741 93.1276 429.741 92.3H413.741C413.741 94.7724 414.179 97.3795 414.628 99.7743L430.354 96.8257ZM429.741 92.3C429.741 91.2669 429.857 90.4802 429.976 89.9262C430.096 89.3672 430.22 89.0108 430.381 88.5298L415.202 83.4702C414.828 84.5917 413.741 87.6816 413.741 92.3H429.741ZM430.267 88.848C430.592 87.9953 431.094 87.0994 431.585 86.35C431.817 85.995 432.019 85.7154 432.151 85.5393C432.216 85.4522 432.262 85.3931 432.283 85.3658C432.294 85.3522 432.298 85.3467 432.296 85.3498C432.295 85.3514 432.292 85.3551 432.287 85.3611C432.284 85.364 432.282 85.3676 432.278 85.3717C432.276 85.3737 432.275 85.3759 432.273 85.3782C432.272 85.3794 432.271 85.3806 432.27 85.3818C432.269 85.3825 432.268 85.3834 432.268 85.3837C432.267 85.3847 432.267 85.3857 426.091 80.3C419.916 75.2143 419.915 75.2153 419.914 75.2163C419.914 75.2167 419.913 75.2177 419.912 75.2184C419.911 75.2198 419.91 75.2212 419.909 75.2227C419.906 75.2257 419.904 75.2288 419.901 75.2321C419.896 75.2386 419.89 75.2459 419.883 75.2538C419.871 75.2696 419.856 75.288 419.839 75.309C419.805 75.351 419.763 75.4034 419.714 75.4657C419.616 75.5901 419.489 75.7548 419.338 75.956C419.039 76.3564 418.64 76.9112 418.198 77.5875C417.338 78.9006 416.19 80.8547 415.315 83.152L430.267 88.848ZM431.748 85.9568C431.885 85.8201 432.005 85.6917 432.065 85.6279C432.109 85.5811 432.226 85.4548 432.249 85.4304C432.353 85.3188 432.442 85.2257 432.536 85.1319C432.722 84.9453 432.922 84.7643 433.141 84.6L423.541 71.8C421.735 73.1548 420.198 74.8792 420.434 74.6432L431.748 85.9568ZM433.998 83.8568C433.774 84.0808 433.722 84.1003 433.932 83.9385C434.092 83.8161 434.355 83.6273 434.708 83.4084C435.425 82.9646 436.416 82.4587 437.594 82.0962L432.889 66.8038C427.615 68.4264 423.959 71.2689 422.684 72.5432L433.998 83.8568ZM438.007 81.9567C439.572 81.38 441.187 81.25 442.741 81.25V65.25C440.395 65.25 436.61 65.42 432.476 66.9433L438.007 81.9567ZM450.518 71.3729C449.516 67.2218 448.645 62.8788 447.754 58.1257L432.028 61.0743C432.937 65.9212 433.867 70.5782 434.965 75.1271L450.518 71.3729ZM447.778 58.2576C446.606 51.3742 445.747 44.8944 445.321 38.93L429.362 40.07C429.836 46.7056 430.776 53.7258 432.005 60.9424L447.778 58.2576ZM440.15 46.9906C441.952 46.3149 444.932 45.4717 448.523 45.2323L447.459 29.2677C442.05 29.6283 437.53 30.885 434.532 32.0094L440.15 46.9906ZM447.991 45.25C449.38 45.25 450.878 45.2486 453.495 45.5103L455.087 29.5897C451.704 29.2514 449.603 29.25 447.991 29.25V45.25ZM453.653 45.5245C456.797 45.776 461.78 46.5611 468.162 48.5034L472.82 33.1966C465.402 30.9389 459.286 29.924 454.929 29.5755L453.653 45.5245ZM478.382 42.1652C478.584 40.9532 478.791 39.2997 478.791 37.25H462.791C462.791 38.2003 462.698 38.9468 462.6 39.5348L478.382 42.1652ZM478.752 38.046C478.796 37.5986 478.846 37.3841 478.866 37.3112C478.88 37.2592 478.863 37.3361 478.787 37.4691L464.895 29.5309C463.528 31.9228 463.041 34.3524 462.831 36.454L478.752 38.046ZM473.316 41.363C475.233 41.0034 477.59 40.75 480.241 40.75V24.75C476.592 24.75 473.249 25.0966 470.367 25.637L473.316 41.363ZM480.046 40.7476C485.311 40.876 489.486 41.906 492.026 42.8999L497.856 28.0001C493.497 26.294 487.472 24.924 480.436 24.7524L480.046 40.7476ZM486.943 35.2932L486.793 42.9432L502.79 43.2568L502.94 35.6068L486.943 35.2932ZM486.791 43.1V50.15H502.791V43.1H486.791ZM486.808 50.6706L487.258 57.5706L503.224 56.5294L502.774 49.6294L486.808 50.6706ZM487.283 57.8662C487.961 64.4787 489.634 70.7761 491.252 75.6298L506.431 70.5702C505.049 66.4239 503.721 61.3213 503.199 56.2338L487.283 57.8662ZM497.41 65.229C495.55 65.5673 494.485 65.7807 493.395 65.8897L494.987 81.8103C496.898 81.6193 498.833 81.2327 500.272 80.971L497.41 65.229ZM492.944 65.9479C490.318 66.3625 487.683 66.6406 484.908 66.9489L486.675 82.8511C489.299 82.5594 492.365 82.2375 495.439 81.7521L492.944 65.9479ZM490.913 68.7542C489.174 67.3053 482.2 61.3698 476.435 56.1961L465.748 68.1039C471.683 73.4302 478.808 79.4947 480.67 81.0458L490.913 68.7542ZM476.406 56.1707C475.359 55.2403 473.944 53.8405 472.012 51.632L459.971 62.168C462.238 64.7594 464.123 66.6597 465.776 68.1293L476.406 56.1707ZM471.648 51.2432C470.328 49.9234 469.207 48.5636 468.038 47.1024L455.544 57.0976C456.775 58.6364 458.354 60.5766 460.334 62.5568L471.648 51.2432ZM453.863 53.1713C454.685 59.2523 456.495 67.9891 460.791 77.5724L475.391 71.0275C471.887 63.2109 470.397 56.0477 469.719 51.0287L453.863 53.1713ZM460.853 77.7064C466.153 88.97 472.937 96.9092 477.734 101.707L489.048 90.3931C485.146 86.4908 479.629 80.03 475.33 70.8936L460.853 77.7064ZM481.286 88.3319C478.093 89.2028 474.831 90.0112 471.375 90.543L473.808 106.357C478.151 105.689 482.09 104.697 485.496 103.768L481.286 88.3319ZM471.22 90.5683C467.879 91.1494 465.105 91.5343 462.592 91.66L463.391 107.64C466.877 107.466 470.403 106.951 473.962 106.332L471.22 90.5683ZM467.429 92.9936C465.62 91.7879 462.834 89.6439 460.038 86.5942L448.244 97.4058C452.048 101.556 455.862 104.512 458.554 106.306L467.429 92.9936ZM459.999 86.5512C457.497 83.8619 456.005 81.5715 454.829 79.7279C454.341 78.9635 453.536 77.663 452.723 76.6673C452.168 75.9874 449.678 72.9 445.291 72.9V88.9C443.481 88.9 442.124 88.2271 441.354 87.6961C440.675 87.2271 440.331 86.7889 440.33 86.7874C440.301 86.7517 440.363 86.826 440.571 87.1385C440.775 87.4456 441.002 87.803 441.341 88.3346C442.677 90.4285 444.785 93.688 448.284 97.4488L459.999 86.5512ZM445.291 72.9H445.141V88.9H445.291V72.9ZM443.925 72.993C440.858 73.4648 438.796 75.2714 437.652 76.5973C436.445 77.9958 435.611 79.5869 435.027 81.0545C433.847 84.0184 433.241 87.6075 433.241 91.4H449.241C449.241 89.1925 449.61 87.6816 449.893 86.9705C450.04 86.6006 450.059 86.7104 449.766 87.0496C449.536 87.3161 448.449 88.4852 446.358 88.807L443.925 72.993ZM433.241 91.4C433.241 95.1989 433.812 99.6219 435.551 104.259L450.532 98.641C449.571 96.0781 449.241 93.6011 449.241 91.4H433.241ZM435.513 104.156C437.657 110.122 441.566 116.235 446.488 120.951C451.323 125.584 458.042 129.7 465.841 129.7V113.7C463.74 113.7 460.785 112.491 457.557 109.399C454.417 106.39 451.875 102.378 450.57 98.7444L435.513 104.156ZM465.841 129.7H467.041V113.7H465.841V129.7ZM467.815 129.662C475.751 128.891 482.104 124.55 486.798 119.857C491.522 115.133 495.176 109.454 497.773 104.664L483.709 97.0359C481.507 101.096 478.71 105.317 475.484 108.543C472.228 111.8 469.131 113.459 466.267 113.738L467.815 129.662ZM497.398 105.288C498.366 103.835 499.094 102.184 499.097 102.178L484.786 95.0223C484.662 95.2702 484.544 95.521 484.478 95.6621C484.398 95.8312 484.348 95.9362 484.298 96.0348C484.212 96.2068 484.151 96.3136 484.085 96.4124L497.398 105.288ZM488.502 105.823C491.266 107.139 494.363 108.883 497.793 111.215L506.79 97.9846C502.719 95.2167 498.916 93.0608 495.381 91.3771L488.502 105.823ZM497.678 111.136C499.988 112.766 502.049 114.414 503.874 115.957L514.209 103.743C512.133 101.986 509.695 100.034 506.905 98.0643L497.678 111.136ZM502.181 105.734C500.693 108.214 498.143 111.798 494.283 115.402L505.2 127.098C510.339 122.302 513.789 117.486 515.901 113.966L502.181 105.734ZM494.473 115.229C490.865 118.386 481.182 127.05 467.041 127.05V143.05C487.7 143.05 501.417 130.414 505.009 127.271L494.473 115.229ZM461.491 31.281L475.891 4.43104L461.791 -3.13106L447.391 23.7189L461.491 31.281ZM468.841 8.64999H487.291V-7.35001H468.841V8.64999ZM480.853 -4.09805L461.053 22.7519L473.93 32.248L493.73 5.39804L480.853 -4.09805ZM467.491 19.5H454.441V35.5H467.491V19.5Z" fill="black" mask="url(#path-1-outside-1_432_2)"/>
<defs>
<linearGradient id="paint0_linear_432_2" x1="262" y1="5" x2="258.562" y2="224.392" gradientUnits="userSpaceOnUse">
<stop stop-color="#FF9B54"/>
<stop offset="1" stop-color="#393939"/>
</linearGradient>
</defs>
</svg>
